<?xml version="1.0" encoding="UTF-8"?>
<svg id="Layer_1" data-name="Layer 1" xmlns="http://www.w3.org/2000/svg" viewBox="0 0 44 44">
  <defs>
    <style>
      .cls-1 {
        fill: #398d66;
      }
    </style>
  </defs>
  <path class="cls-1" d="M33.74164,26.02705c-.00708-.01196-.01538-.02417-.02246-.03613,1.64087-4.38818.53052-8.01648-.71191-10.30176-.32251-.59351-.69727-1.13916-1.09766-1.65771.71899-2.21338,1.57324-4.93433,2.36328-7.68408.13574-.46484-.11035-.9707-.55176-1.12988-.21582-.0752-.45117-.05957-.66113.0459-.21582.11133-.37793.31348-.44727.55469-.5918,2.05664-1.28369,4.31409-2.05518,6.72034-3.36597-3.13721-8.28149-4.20459-12.70874-2.61133l.10278-.34729c.13281-.4502-.12402-.92383-.57422-1.05664-.45117-.12988-.92285.125-1.05664.57422l-.62085,2.09912c-.03149.10645-.04126.21899-.0293.3313.01099.10425.04395.20361.09106.29565.00342.00684.00269.01428.00635.021.00366.00659.01025.01025.01392.0166.05176.08984.11743.17151.19922.23779.07886.06372.16968.10791.2644.13989.0105.00342.01758.01172.02832.01489l2.09961.62109c.08008.02344.16211.03516.24121.03516.36719,0,.70605-.23926.81543-.60938.11597-.39307-.0752-.79028-.42285-.97656,3.92993-1.16345,8.19727.0376,10.95874,3.03516-.12451.38037-.24365.75073-.37183,1.1377l-.03418.0918c-1.06641,3.21387-.5459,6.72656,1.39062,9.39648.49805.6875.92773,1.3418,1.31543,2.00195,1.72168,2.88379,2.59375,5.72168,2.59375,8.43457v2.36621c0,.50195.38965.91113.86816.91113s.86816-.40918.86816-.91113v-2.36621c0-3.06152-.96094-6.22266-2.85449-9.39453ZM31.51312,16.50166c.95264,1.75208,1.81909,4.41833,1.00635,7.6499-.06396-.09045-.11963-.17773-.18604-.26904-1.58301-2.18164-2.01367-5.04102-1.15625-7.63477l.03125-.08496c.01074-.03247.02344-.07068.03442-.10364.0896.14783.18677.28894.27026.4425Z"/>
  <path class="cls-1" d="M25.94134,26.28144c.15332.10107.36182.00952.39746-.17065.30273-1.52283.47168-7.5293-5.85938-9.08264l-1.21436-.11609c-.11938-.01123-.23193.05811-.27515.1698l-.31177.80396c-1.72681,4.45435,1.29102,9.32288,6.04858,9.75793l.14746.01343c.25684.02344.39185-.28418.20239-.45923-2.51221-2.31982-4.84033-8.17908-4.84033-8.17908,0,0,3.27222,5.65881,5.70508,7.26257Z"/>
  <path class="cls-1" d="M30.83661,29.76325c-.03931-.10242-.09814-.19495-.17163-.27405-.00195-.0022-.00244-.005-.00439-.00708-.01099-.0116-.02588-.01562-.0376-.02649-.0686-.06506-.1438-.1239-.23145-.16345-.10596-.04785-.21899-.073-.33325-.07495l-2.17993-.05933c-.00781-.00098-.01562-.00098-.02344-.00098-.45898,0-.83789.36621-.84961.82715-.01196.4104.27612.74438.65991.83472-4.23999,2.5896-9.86768,1.96692-13.41772-1.78198-.70435-.74353-1.28027-1.56494-1.73438-2.43433.24146-.38879.5061-.79419.83691-1.26685,1.83203-2.60645,2.33301-5.93262,1.3584-9.17578-.02051-.06836-.04297-.14062-.06934-.24023-1.11816-3.70898-2.07031-7.06348-2.83105-9.96777-.06445-.24512-.22363-.45117-.43359-.56445-.20312-.1123-.44336-.13672-.65918-.0625-.44434.14258-.70508.6416-.58105,1.11133.59424,2.27197,1.30957,4.8252,2.125,7.59521-.07422.05151-.14722.10718-.2041.18408-2.69824,3.62012-3.15869,8.27563-1.49243,12.23755-1.72583,3.03467-2.60913,6.05042-2.60913,8.96851v2.36133c0,.50195.38965.91113.86816.91113s.86816-.40918.86816-.91113v-2.36133c0-2.28735.62842-4.66772,1.85815-7.0968.42236.66125.90747,1.29346,1.46509,1.88196,2.44629,2.58301,5.74512,3.88574,9.0498,3.88574,2.47754,0,4.95264-.74573,7.08105-2.22034l-.00977.35999c-.01367.46973.35742.86035.82617.87305.00781.00098.01562.00098.02344.00098.45898,0,.83789-.36621.84961-.82715l.05957-2.1864c.00342-.11169-.01587-.22339-.0564-.32935ZM12.86175,16.0561c.03857.12793.07349.24829.1123.3772.03223.12598.06934.24609.10645.36523.78223,2.60449.37012,5.32227-1.13086,7.45801-.08545.12256-.15308.22778-.23218.34424-.81372-2.82971-.45337-5.93103,1.14429-8.54468Z"/>
</svg>