<?xml version="1.0" encoding="UTF-8"?>
<svg id="Layer_1" data-name="Layer 1" xmlns="http://www.w3.org/2000/svg" viewBox="0 0 44 44">
  <defs>
    <style>
      .cls-1 {
        fill: #398d66;
      }
    </style>
  </defs>
  <path class="cls-1" d="M28.78749,18.32978h-5.63965l.37109-14.18652c.00977-.39844-.25293-.74609-.63672-.84473-.38184-.09766-.7832.07617-.96777.42969l-10.1543,19.48145c-.1377.26172-.12793.58203.02637.83691.15332.25195.43164.4082.72656.4082l4.47461-.00488-.84668,14.09668c-.02344.39062.2207.74512.60059.86426.08301.02441.16602.03711.24805.03711.29395,0,.57227-.15625.72656-.40918l11.79785-19.41699c.15918-.2627.16504-.5918.01465-.8584-.15039-.26758-.43457-.43359-.74121-.43359ZM18.50917,23.0163c-.16016-.16992-.38574-.26758-.61914-.26758l-3.97363.00391,7.80566-14.97656-.29688,11.38379c-.00488.22656.08301.4502.24121.61328.1582.16406.38086.25781.60938.25781h5l-9.23145,15.19336.69434-11.5752c.01367-.23242-.07031-.46289-.22949-.63281Z"/>
  <path class="cls-1" d="M12.72694,17.91865l4.05469-7.73633c.2168-.41602.05566-.93066-.36035-1.14844-.41406-.21777-.92969-.05664-1.14648.35938l-4.05469,7.73633c-.2168.41602-.05566.93066.36035,1.14844.12109.06348.25781.09668.39355.09668.31641,0,.60547-.1748.75293-.45605Z"/>
  <path class="cls-1" d="M36.74159,4.6872c-.18945-.18848-.43848-.25488-.63574-.24902-.28711.0127-7.07617.32812-10.17773,3.42578-3.28906,3.28418-1.19336,8.09277-1.10254,8.2959.08496.18945.23633.3418.42969.43066.17285.07617,1.74121.74609,3.64746.74609,1.8623,0,3.42676-.61914,4.64844-1.83887,3.11035-3.10547,3.42676-9.88672,3.43945-10.17578.00781-.23828-.08301-.46973-.24902-.63477ZM32.68105,9.98505c.40332-.23828.53906-.76074.30176-1.16504-.23633-.40039-.75781-.53711-1.16504-.30176-2.88306,1.69678-4.85303,3.93677-5.89404,5.31934-.23779-1.36206-.23828-3.32874,1.20557-4.77051,2.02148-2.01855,6.28125-2.66406,8.08203-2.85059-.18945,1.7998-.83984,6.05859-2.86133,8.07812-1.70044,1.69556-4.06787,1.41992-5.42676,1.06238.79248-1.12854,2.75122-3.60291,5.75781-5.37195Z"/>
</svg>