<?xml version="1.0" encoding="UTF-8"?>
<svg id="Layer_1" data-name="Layer 1" xmlns="http://www.w3.org/2000/svg" viewBox="0 0 44 44">
  <defs>
    <style>
      .cls-1 {
        fill: #398d66;
      }
    </style>
  </defs>
  <path class="cls-1" d="M37.61937,20.4062c-.01465-.53394-.14209-1.20361-.28857-1.80591-.00488-.02026-.0166-.03638-.02271-.05603l-.04565-.20276-.03809-.00403c-.14404-.24719-.39136-.41589-.69238-.45789-.55176-.0791-13.58887-1.78613-18.58496,7.36328-1.99023,3.64258-1.07324,7.45605-.74414,8.54004.11523.37109.4375.63965.82324.68262.03711.00391.07422.00586.11133.00586.3457,0,.65918-.17969.83594-.4873.59375-1.03711,3.92578-6.36719,11.19434-9.44238.20898-.08789.37109-.25293.45703-.46387.08496-.21094.08398-.44141-.00488-.65039-.18066-.43066-.68262-.63184-1.11426-.45215-5.93652,2.51172-9.44336,6.48242-11.01953,8.6543-.17871-1.43262-.15234-3.54688.95312-5.57227,3.95581-7.24292,13.83447-6.79248,16.35132-6.55029.40625,2.03516.30884,4.20068-.29077,6.31592-1.02246,3.60352-3.38574,6.59277-6.65527,8.41699-3.26562,1.82422-7.05078,2.26465-10.65625,1.24121-3.60547-1.02246-6.59473-3.38379-8.41699-6.64844-1.82227-3.26367-2.2627-7.04785-1.24121-10.65527.08154-.28784.18604-.56458.28418-.84424,1.29443.71582,4.35107,2.62402,6.75781,5.83154-.3623.7793-1.0166,2.34863-1.35645,4.17578-.78418-.98828-1.82422-2.45898-2.4248-3.95996-.17188-.42773-.66602-.64453-1.10645-.47168-.43359.1748-.64551.6709-.47266,1.10547.97168,2.42871,2.8916,4.70312,3.67188,5.56641.19922.22266.48438.35059.78223.35059.11523,0,.23047-.01953.3418-.05762.4043-.13965.68359-.50586.71289-.93359.19141-2.78809,1.57812-5.43652,1.59277-5.46289l.24414-.46191-.30176-.42871c-2.74829-3.87769-6.38525-6.08301-7.78418-6.83508,1.24512-2.51562,3.2085-4.59802,5.70703-5.99207,3.22949-1.80566,7.08691-2.25781,10.65625-1.24805,2.79321.79236,5.2373,2.43481,7.04761,4.67944-.14575-.0083-.29126.00684-.42651.07446-.20508.10156-.35645.27734-.42773.49316-.14648.44531.0957.92773.54004,1.07422l2.01172.66699c.08691.02832.17676.04297.2666.04297.17188,0,.33887-.05176.48145-.15039.2207-.15137.35742-.39941.36719-.66309l.09277-2.11523c.01074-.22754-.06738-.44434-.2207-.6123-.15332-.16699-.36328-.26562-.5459-.26953-.21875-.04297-.43945.0166-.6123.15723-.08008.06494-.13965.1521-.19165.24316-2.03174-2.52258-4.7854-4.3689-7.9187-5.25684-4.04004-1.14551-8.28418-.64844-11.9502,1.39746-3.66602,2.04785-6.31641,5.39941-7.46094,9.43848-1.14453,4.04004-.64844,8.28418,1.39746,11.95117,2.04785,3.66602,5.39941,6.31641,9.43848,7.46094,1.41211.40039,2.8623.60352,4.31055.60352,2.65234,0,5.29492-.69238,7.64062-2.00098,3.66699-2.04785,6.31641-5.40039,7.46094-9.43945.54395-1.91748.70312-3.88843.48389-5.88062Z"/>
</svg>