<?xml version="1.0" encoding="UTF-8"?>
<svg id="Layer_1" data-name="Layer 1" xmlns="http://www.w3.org/2000/svg" viewBox="0 0 44 44">
  <defs>
    <style>
      .cls-1 {
        fill: #398d66;
      }
    </style>
  </defs>
  <path class="cls-1" d="M33.43614,27.51087l-.11035-.18652c-.41309-.70605-.87402-1.4082-1.4082-2.14453-.7915-1.09082-1.29443-2.35229-1.49341-3.66357-.19824-1.31152-.09155-2.67456.33716-3.97119l.00903-.02441.12378-.26758c.02148-.04822.01074-.09888.0166-.14917.80347-2.42029,1.92725-5.91199,2.94629-9.45923.13574-.46484-.11035-.9707-.55176-1.12988-.2168-.07617-.4502-.05957-.66113.0459-.21582.11133-.37793.31348-.44727.55469-.73901,2.56787-1.63525,5.45093-2.64941,8.54919-2.17017-1.58655-4.85205-2.45251-7.68652-2.45251-2.95679,0-5.80713.97937-8.02197,2.7124-.94995-3.19189-1.77661-6.11682-2.44678-8.67529-.06445-.24512-.22363-.45117-.43359-.56445-.20215-.1123-.44336-.13672-.65918-.0625-.44434.14258-.70508.6416-.58105,1.11133.7627,2.91602,1.71973,6.28418,2.83984,9.99707.03223.12598.06934.24609.10645.36523.78223,2.60449.37012,5.32227-1.13086,7.45801-.45996.66016-.82422,1.2207-1.14941,1.77051l-.00244.00488-.05518.0957c-1.85059,3.14453-2.78906,6.27148-2.78906,9.29395v2.36133c0,.50195.38965.91113.86816.91113s.86816-.40918.86816-.91113v-2.36133c0-2.26575.61792-4.62305,1.82471-7.02832,2.13135,3.50513,6.25293,5.7666,10.76221,5.7666,4.50977,0,8.62793-2.26086,10.75537-5.76611,1.2085,2.39917,1.82764,4.75757,1.82764,7.02783v2.36621c0,.50195.38965.91113.86816.91113s.86816-.40918.86816-.91113v-2.36621c0-2.99365-.92529-6.08276-2.73633-9.18384-.00415-.00769-.00342-.0166-.00781-.02417ZM12.2628,27.63611c.06006-.09375.1189-.1864.18311-.28369.15039-.22778.30786-.46191.48828-.71948.22656-.32239.43188-.65601.61768-.99878.04175-.07715.07251-.15918.1123-.2373.13794-.271.27197-.5437.38452-.82483.0271-.06799.04541-.13904.07104-.20752.1123-.29944.21729-.60144.30127-.91003.01196-.04395.01831-.08936.02979-.13354.08716-.33911.16064-.68176.21338-1.0293.00269-.01782.00342-.03613.00586-.0542.05518-.37549.08984-.75452.104-1.13672,0-.00439-.00024-.00879,0-.01331.01367-.39294.00513-.78796-.02466-1.18469-.00122-.01709-.00439-.0343-.00562-.05127-.03003-.37598-.07861-.75183-.14844-1.12805-.01343-.0741-.03369-.14783-.04858-.22192-.04956-.23962-.0918-.47961-.15747-.71814,1.96875-1.75,4.67871-2.75,7.47168-2.75,2.65039,0,5.16504.86426,7.10742,2.43848-.0293.10864-.04346.21924-.06909.32849-.04492.19006-.08569.37964-.11987.57068-.03491.1958-.06201.3916-.08569.58813-.02588.21216-.04858.42346-.06177.63574-.01025.17041-.01221.33984-.01416.51001-.00317.2356-.00391.46997.00854.70422.00806.14563.02466.28967.03882.43469.02393.25134.04932.50171.09106.75024.02222.13086.0542.25903.0813.38879.05273.25354.10547.50647.177.75525.03882.1355.09009.2666.13428.40039.07788.23413.15259.46899.24731.69714.07202.17419.16113.3407.24268.51062.08691.18018.16504.36377.2627.5387.19092.34375.40137.67737.6333.99744.229.31628.44043.62439.64331.93042.05933.08936.11353.17676.17041.26489.08618.13416.16748.26782.24976.40149-1.61328,3.45105-5.49902,5.75671-9.7373,5.75671-4.24072,0-8.13184-2.30713-9.74805-5.76123.04907-.07874.0979-.15747.1499-.23853Z"/>
  <path class="cls-1" d="M9.01817,22.95032c-.13184.18457-.18359.41016-.14551.63477.03809.22363.16113.41992.34473.5498.14453.10352.31543.1582.49414.1582.27539,0,.53516-.13379.69336-.3584l1.21973-1.71777c.02344-.03271.03418-.07043.05249-.10547.01562-.03015.03247-.05786.04468-.08997.03467-.0929.05688-.18884.05811-.28687,0-.00354.00195-.00635.00195-.00989s-.00195-.00635-.00195-.00989c-.00122-.09802-.02344-.19397-.05811-.28699-.01221-.0321-.02905-.05981-.04468-.08984-.01831-.03516-.02905-.07275-.05249-.10547l-1.21973-1.7168c-.13184-.18652-.32812-.30957-.55371-.34766-.22852-.03711-.4502.01562-.63184.14648-.18555.13086-.30859.32715-.34668.55078-.03809.22461.01367.4502.14551.63477l.26562.37402h-2.01172c-.46875,0-.85059.38184-.85059.85059s.38184.85059.85059.85059h2.01221l-.26611.375Z"/>
  <path class="cls-1" d="M36.20274,20.87415h-2.01172l.26562-.37402c.13184-.18457.18359-.41016.14551-.63477-.03809-.22363-.16113-.41992-.34473-.5498-.18457-.13281-.41309-.18457-.63379-.14648-.22559.03711-.42188.16016-.55371.34668l-1.21973,1.7168c-.02344.03284-.03442.07056-.05249.10571-.01562.03003-.03247.0575-.04468.08948-.03467.09302-.05688.18909-.05811.28711,0,.00354-.00195.00647-.00195.00989s.00195.00635.00195.00989c.00122.09802.02344.19397.05811.28699.01221.03198.02881.05957.04443.08948.01831.03516.0293.07288.05273.10583l1.21973,1.7168c.1582.22559.41797.35938.69336.35938.17871,0,.34961-.05469.49219-.15723.18555-.13086.30859-.32715.34668-.55078.03809-.22461-.01367-.4502-.14551-.63477l-.26611-.375h2.01221c.46875,0,.85059-.38184.85059-.85059s-.38184-.85059-.85059-.85059Z"/>
  <path class="cls-1" d="M20.2003,29.95716c.07642.00659.15015-.03137.18896-.09766.03906-.06641.03613-.14929-.00732-.21289-.43994-.64478-.60083-1.25342-.47803-1.80896.04175-.18848.11084-.33923.17383-.44751.3147.401.62378.60364.92163.60364.00806,0,.01636-.00024.02441-.00049.29395-.01099.49097-.22229.56104-.34534.03979-.06995.03369-.15686-.01562-.22058-.41479-.53491-.57495-1.04993-.47559-1.53076.0979-.47546.43164-.83423.68896-1.04883.01099.46008.15332.93372.42041,1.39124.26245.44983.55273.72693.56567.73914.59351.55603.82349,1.18677.68335,1.87451-.10767.5271-.40063.89697-.40332.90039-.05713.07043-.05933.17053-.00562.24341.03857.052.09863.08093.1604.08093.02466,0,.0498-.00476.07397-.01428,1.4585-.58569,2.34814-1.45874,2.6438-2.59509.13623-.52332.14404-1.10168.02344-1.71887-.09521-.48682-.27026-.99902-.52026-1.52246-.42334-.8866-.91113-1.49438-.93164-1.51978-.05054-.0625-.13354-.0885-.21045-.06604-.07715.02246-.1333.08899-.14233.16882-.0979.86816-.47949,1.11719-.62476,1.18115-.55591-.28174-.8291-.76782-.8125-1.44629.01392-.55762.2229-1.04089.22485-1.04541.00366-.00854.00684-.01709.00928-.026.16016-.56335.10986-1.07178-.14917-1.51123-.50903-.86316-1.64111-1.1344-1.68921-1.14563-.07153-.0166-.14673.00769-.19507.06323-.04834.05542-.06201.13306-.03564.2019.31934.83423.07886,1.68506-.17896,2.25183-.17261.37903-.42383.72449-.74683,1.02698-.85352.79919-1.00464,1.71997-.9812,2.35181.01074.28516.05664.53699.10693.73462-.25073-.18518-.41724-.48584-.49658-.89832-.0918-.47705-.02832-.92664-.02759-.93103.01489-.10156-.05005-.198-.1499-.22241-.09985-.02429-.2019.03149-.23535.12866-.41748,1.21094-.6145,2.28345-.58594,3.18774.02441.76489.20947,1.4187.55005,1.94336.76318,1.17517,2.02466,1.29785,2.07788,1.30249Z"/>
</svg>