<?xml version="1.0" encoding="UTF-8"?>
<svg id="Layer_1" data-name="Layer 1" xmlns="http://www.w3.org/2000/svg" viewBox="0 0 44 44">
  <defs>
    <style>
      .cls-1 {
        fill: #398d66;
      }
    </style>
  </defs>
  <path class="cls-1" d="M37.67198,22.25581c0-.00378-.0022-.00684-.0022-.0105v-.00195c-.00024-.00818-.00464-.01501-.00513-.02319-.01953-.40796-.35132-.73584-.76416-.73584h-.25415c-.10498-.49341-.31299-.96997-.60767-1.3894-.34521-.49146-.81006-.9104-1.34961-1.21765-.17432-.82825-.63843-1.59277-1.31592-2.16406-.41504-.35022-.89746-.61169-1.41504-.78674l1.81665-7.63635c.0918-.38599.02783-.78467-.18018-1.12268-.20801-.33789-.53516-.57446-.92114-.66626l-.21265-.05078c-.38623-.09167-.78491-.02771-1.12256.1803-.33789.20813-.57446.53528-.6665.92126l-2.02637,8.51782c-.50562.22241-.96704.52979-1.34912.92578-.81104-.93091-2.03613-1.47852-3.33765-1.47852-.22241,0-.44385.01624-.66211.04785l1.09863-1.09839c.14551-.14575.22583-.3396.22583-.54565s-.08032-.39966-.22583-.54553l-3.87524-3.87512c-.30078-.30054-.79028-.30054-1.09106,0l-3.74854,3.74854-3.74854-3.74854c-.30078-.30054-.79004-.30054-1.09082,0l-3.87524,3.87512c-.30078.3009-.30078.79028,0,1.09119l3.74854,3.74841-3.26929,3.26941h-.34326c-.41895,0-.76514.34058-.77148.7594-.00122.07874-.00195.15759-.00195.23669,0,2.03833.41577,4.01599,1.23633,5.87769.79126,1.7959,1.92334,3.40796,3.36499,4.7915,1.43921,1.38135,3.11499,2.46582,4.98022,3.22314,1.92969.78333,3.97876,1.18054,6.09033,1.18054,2.11133,0,4.1604-.39722,6.08984-1.18054,1.86548-.75732,3.54126-1.8418,4.98047-3.22314,1.44141-1.38354,2.57373-2.99561,3.36499-4.7915.82056-1.86169,1.23657-3.83936,1.23657-5.87769,0-.0719-.00098-.14355-.00195-.21509,0-.00342.00195-.0061.00195-.00952ZM30.32335,15.68305l1.83618-7.71814.10083.02405-1.83008,7.69165c-.03564.00037-.07129.00122-.10693.00244ZM10.84093,26.92963c.14575.14575.33936.22583.54541.22583s.39966-.08008.54541-.22583l3.74854-3.74854,3.74854,3.74854c.14575.14575.3396.22583.54541.22583.20605,0,.3999-.08008.54565-.22583l3.87524-3.87524c.00781-.00781.0105-.01904.01807-.0271h11.7041c-.30225,7.18262-6.5791,12.98291-14.11719,12.98291-7.19141,0-13.22095-5.19751-14.03491-11.9563l2.87573,2.87573ZM8.6024,22.50898l3.74854-3.74854c.14575-.14575.22583-.3396.22583-.54553s-.08008-.39978-.22607-.54553l-3.74829-3.74854,2.78394-2.78394,3.74854,3.74854c.30078.30054.79028.30054,1.09106,0l3.74854-3.74854,2.78394,2.78394-2.354,2.354-.00024.00012-1.39429,1.39441c-.07275.07275-.12939.15771-.16748.25012-.02905.0697-.03662.14636-.04419.22278-.0022.0249-.0144.04724-.0144.07251h0v.00012c0,.10291.02026.203.05859.29529.03809.09253.09473.17725.16748.25024l3.74854,3.74854-2.78418,2.78394-3.74854-3.74854c-.14551-.14575-.33936-.22583-.54541-.22583s-.39966.08008-.54541.22583l-3.74854,3.74854-2.78394-2.78394ZM29.63341,17.34956c.04346-.01257.08789-.02087.13184-.03149.23242-.05591.47241-.09485.72168-.09485,1.42432,0,2.62329.97864,2.72998,2.22778.02393.2804.19849.52539.45581.63953.6626.29407,1.13452.80078,1.35889,1.3938h-11.11572l-3.26929-3.26953.20166-.20154c.09717.07117.21143.11926.33447.13879.25024.03955.50415-.04614.6792-.22949.52271-.5481,1.28687-.86255,2.09668-.86255,1.15942,0,2.19775.64807,2.58325,1.61255.11401.28528.38647.47559.69458.48486.3064.00806.5896-.16577.71997-.44275.31226-.66394.93237-1.14978,1.677-1.36511Z"/>
</svg>