<?xml version="1.0" encoding="UTF-8"?>
<svg id="Layer_1" data-name="Layer 1" xmlns="http://www.w3.org/2000/svg" viewBox="0 0 44 44">
  <defs>
    <style>
      .cls-1 {
        fill: #398d66;
      }
    </style>
  </defs>
  <path class="cls-1" d="M33.43614,27.51087l-.11035-.18652c-.41309-.70605-.87402-1.4082-1.4082-2.14453-.7915-1.09082-1.29443-2.35229-1.49341-3.66357-.19824-1.31152-.09155-2.67456.33716-3.97119l.00903-.02441.12378-.26758c.02148-.04822.01074-.09888.0166-.14917.80347-2.42029,1.92725-5.91199,2.94629-9.45923.13574-.46484-.11035-.9707-.55176-1.12988-.2168-.07617-.45117-.05957-.66113.0459-.21582.11133-.37793.31348-.44727.55469-.73901,2.56787-1.63525,5.45093-2.64941,8.54919-2.17017-1.58655-4.85205-2.45251-7.68652-2.45251-2.95679,0-5.80713.97937-8.02197,2.7124-.94995-3.19189-1.77661-6.11682-2.44678-8.67529-.06445-.24512-.22363-.45117-.43359-.56445-.20312-.1123-.44238-.13672-.65918-.0625-.44434.14258-.70508.6416-.58105,1.11133.7627,2.91602,1.71973,6.28418,2.83984,9.99707.03223.12598.06934.24609.10645.36523.78223,2.60449.37012,5.32227-1.13086,7.45801-.45996.66016-.82422,1.2207-1.14941,1.77051l-.00244.00488-.05518.0957c-1.85059,3.14453-2.78906,6.27148-2.78906,9.29395v2.36133c0,.50195.38965.91113.86816.91113s.86816-.40918.86816-.91113v-2.36133c0-2.26575.61792-4.62305,1.82471-7.02832,2.13135,3.50513,6.25293,5.7666,10.76221,5.7666,4.50977,0,8.62793-2.26086,10.75537-5.76611,1.2085,2.39917,1.82764,4.75757,1.82764,7.02783v2.36621c0,.50195.38965.91113.86816.91113s.86816-.40918.86816-.91113v-2.36621c0-2.99365-.92529-6.08276-2.73633-9.18384-.00415-.00769-.00342-.0166-.00781-.02417ZM12.2628,27.63611c.06006-.09375.1189-.1864.18311-.28369.15039-.22778.30786-.46191.48828-.71948.22656-.32239.43188-.65601.61768-.99878.04175-.07715.07251-.15918.1123-.2373.13794-.271.27197-.5437.38452-.82483.0271-.06799.04541-.13904.07104-.20752.1123-.29944.21729-.60144.30127-.91003.01196-.04395.01831-.08936.02979-.13354.08716-.33911.16064-.68176.21338-1.0293.00269-.01782.00342-.03613.00586-.0542.05518-.37549.08984-.75452.104-1.13672,0-.00439-.00024-.00879,0-.01331.01367-.39294.00513-.78796-.02466-1.18469-.00122-.01709-.00439-.0343-.00562-.05127-.03003-.37598-.07861-.75183-.14844-1.12805-.01343-.0741-.03369-.14783-.04858-.22192-.04956-.23962-.0918-.47961-.15747-.71814,1.96875-1.75,4.67871-2.75,7.47168-2.75,2.65039,0,5.16504.86426,7.10742,2.43848-.0293.10864-.04346.21924-.06909.32849-.04492.19006-.08569.37964-.11987.57068-.03491.1958-.06201.3916-.08569.58813-.02588.21216-.04858.42346-.06177.63574-.01025.17041-.01221.33984-.01416.51001-.00317.2356-.00391.46997.00854.70422.00806.14563.02466.28967.03882.43469.02393.25134.04932.50171.09106.75024.02222.13086.0542.25903.0813.38879.05273.25354.10547.50647.177.75525.03882.1355.09009.2666.13428.40039.07788.23413.15259.46899.24731.69714.07202.17419.16113.3407.24268.51062.08691.18018.16504.36377.2627.5387.19092.34375.40137.67737.6333.99744.229.31628.44043.62439.64331.93042.05933.08936.11353.17676.17041.26489.08618.13416.16748.26782.24976.40149-1.61328,3.45105-5.49902,5.75671-9.7373,5.75671-4.24072,0-8.13184-2.30713-9.74805-5.76123.04907-.07874.0979-.15747.1499-.23853Z"/>
  <path class="cls-1" d="M7.96251,27.05774l1.85059-.91504c.37207-.18359.52344-.63281.33984-1.00391-.17432-.35413-.59082-.50244-.95117-.354,1.06299-2.21729,1.88745-5.35352.42969-8.51221-.17285-.37695-.62109-.53906-.99512-.36621-.37598.17285-.54004.61914-.36621.99512,1.21191,2.62512.50537,5.30005-.41357,7.22266-.13232-.34619-.49536-.55933-.85791-.4707-.40332.09277-.65527.49609-.56152.89941l.46289,2.00195c.05176.22363.20215.41113.40918.50879.10156.04785.21191.07227.32129.07227.11426,0,.22754-.02637.33203-.07812Z"/>
  <path class="cls-1" d="M36.25255,23.65345c-.36597-.08862-.72681.12427-.85791.47046-.91919-1.92273-1.62549-4.59741-.41455-7.22241.17383-.37598.00977-.82227-.36621-.99512-.37402-.17188-.82227-.00977-.99512.36621-1.45703,3.15845-.63257,6.29443.43042,8.5116-.3606-.14636-.77759.00037-.95288.35461-.18262.37109-.03125.82129.34082,1.00488l1.85156.91504c.10449.05078.21777.07715.33203.07715.10938,0,.21973-.02441.32129-.07227.20703-.09766.35742-.28516.40918-.50879l.46289-2.00195c.09375-.40332-.1582-.80664-.56152-.89941Z"/>
  <path class="cls-1" d="M21.54356,30.1847c3.18262,0,5.77148-2.58887,5.77148-5.77148s-2.58887-5.77148-5.77148-5.77148-5.77148,2.58887-5.77148,5.77148,2.58887,5.77148,5.77148,5.77148ZM21.54356,20.14173c2.35547,0,4.27148,1.91602,4.27148,4.27148s-1.91602,4.27148-4.27148,4.27148-4.27148-1.91602-4.27148-4.27148,1.91602-4.27148,4.27148-4.27148Z"/>
  <path class="cls-1" d="M20.32872,26.31263c.14648.14648.33887.21973.53027.21973.19238,0,.38379-.07324.53027-.21973l2.73926-2.73926c.29297-.29297.29297-.76758,0-1.06055s-.76758-.29297-1.06055,0l-2.20898,2.20898-.83984-.83887c-.29395-.29395-.76855-.29199-1.06055,0-.29297.29297-.29297.76758,0,1.06055l1.37012,1.36914Z"/>
</svg>