<?xml version="1.0" encoding="UTF-8"?>
<svg id="Layer_1" data-name="Layer 1" xmlns="http://www.w3.org/2000/svg" viewBox="0 0 30.52051 30.521">
  <defs>
    <style>
      .cls-1 {
        fill: #222832;
      }
    </style>
  </defs>
  <path class="cls-1" d="M15.03711,19.70459c-.30371.0752-.48828.38379-.41211.6875.06445.25781.29492.42969.5498.42969.04492,0,.09082-.00586.1377-.01758,4.72266-1.17871,7.55859-6.21777,6.93945-9.93555-.05176-.30908-.34961-.51611-.65234-.46582-.30957.05127-.51758.34326-.4668.65234.52734,3.16406-2.02051,7.63184-6.0957,8.64941Z"/>
  <path class="cls-1" d="M21.9707,16.65186c-.30957.04297-.52637.3291-.4834.63965.44824,3.23242-2.17383,5.08984-4.55566,5.69922-1.77637.44824-5.2168-.26562-6.93457-2.30566l.13477-.06543c1.02539-.46973,2.82422-1.81348,3.61035-3.33203,1.00098-1.93457,2.6377-2.50293,4.86719-1.67871.29395.10547.61914-.04297.72852-.33594.1084-.29395-.04199-.62012-.33594-.72852-2.77148-1.01904-4.99707-.23145-6.26758,2.22168-.6543,1.26465-2.22168,2.43164-3.07422,2.82227-.08398.03809-.1709.08203-.25586.12402-.06445.03223-.15137.07617-.21777.10645-.13086-.02637-.27148-.00488-.39648.07031-.26855.16016-.35645.50781-.19629.77637l.00098.00098c0,.00098.00098.00098.00098.00195,1.46484,2.44434,4.76758,3.58105,7.18848,3.58008.52734,0,1.0127-.05371,1.42871-.16016,3.05859-.78125,5.91406-3.23438,5.39746-6.95312-.04297-.31055-.33984-.5293-.63965-.4834Z"/>
  <path class="cls-1" d="M15.25977,0C6.8457,0,0,6.8457,0,15.26025c0,8.41406,6.8457,15.26074,15.25977,15.26074s15.26074-6.84668,15.26074-15.26074C30.52051,6.8457,23.67383,0,15.25977,0ZM15.25977,29.38623c-7.78906,0-14.125-6.33691-14.125-14.12598C1.13477,7.4707,7.4707,1.13379,15.25977,1.13379s14.12598,6.33691,14.12598,14.12646c0,7.78906-6.33691,14.12598-14.12598,14.12598Z"/>
  <path class="cls-1" d="M15.25977,3.61426c-6.42188,0-11.64746,5.22412-11.64746,11.646s5.22559,11.64746,11.64746,11.64746,11.64746-5.22559,11.64746-11.64746S21.68164,3.61426,15.25977,3.61426ZM15.25977,25.77295c-5.79688,0-10.5127-4.71582-10.5127-10.5127,0-5.79639,4.71582-10.51221,10.5127-10.51221s10.5127,4.71582,10.5127,10.51221c0,5.79688-4.71582,10.5127-10.5127,10.5127Z"/>
  <path class="cls-1" d="M8.94727,11.8623c.18262,0,.3623-.08789.47168-.25049.63965-.95215,1.4668-1.73389,2.45703-2.32373,1.83887-1.09131,3.98242-1.37012,6.03711-.78418.30273.08691.61523-.08887.7002-.39014.08594-.30078-.08789-.61475-.38965-.70068-2.35547-.67236-4.81738-.35352-6.92676.90039-1.13672.67627-2.08496,1.57324-2.81934,2.66553-.1748.26025-.10547.6123.1543.78711.09766.06494.20703.09619.31543.09619Z"/>
  <path class="cls-1" d="M8.29492,12.58447c-.08984-.04346-.19141-.06543-.28809-.05273-.26758.03027-.49219.31836-.51562.58643-.02344.26465.13965.49268.38086.57275.08105.04443.16992.07129.25879.0708.01074,0,.02051,0,.03125-.00098.25977-.01855.49902-.28223.54395-.53857.05078-.29053-.13086-.56299-.41113-.6377Z"/>
</svg>