<?xml version="1.0" encoding="UTF-8"?>
<svg id="Layer_1" data-name="Layer 1" xmlns="http://www.w3.org/2000/svg" viewBox="0 0 30.36182 33.44296">
  <defs>
    <style>
      .cls-1 {
        fill: #231f20;
      }
    </style>
  </defs>
  <path class="cls-1" d="M30.35596,19.92929c-.00476-.01654-.01453-.03058-.0199-.04688.0025-.02271.01111-.04425.01111-.06738,0-2.22461-11.61426-2.39746-15.17383-2.39746-2.88116,0-11.03723.11371-14.04205,1.33661,0,0-.29803.11768-.36218.16498-.48767.25378-.7691.54993-.7691.89587,0,.04041.0119.0788.01947.11786l-.00287.01007.00244.02344c.91309,7.68262,7.43506,13.47656,15.1709,13.47656,7.73242,0,14.25391-5.79004,15.16895-13.46875l.00293-.02344-.00586-.02148ZM15.18994,32.24765c-6.77728,0-12.45508-4.80341-13.76984-11.263,3.20825,1.12128,10.95978,1.22882,13.75323,1.22882,2.80548,0,10.61053-.10883,13.79327-1.24371-1.31409,6.45789-7.01862,11.27789-13.77667,11.27789ZM15.17334,18.55234c7.5625,0,12.5498.68652,13.82129,1.2627-1.27148.57715-6.25879,1.26367-13.82129,1.26367s-12.5498-.68652-13.8208-1.26367c1.27148-.57617,6.25879-1.2627,13.8208-1.2627Z"/>
  <path class="cls-1" d="M14.1584,16.24735c2.23273,0,4.04266-1.81,4.04266-4.04266,0-2.39191-2.08228-5.2403-3.5672-6.68524-.26654-.2594-.68433-.2594-.95093,0-1.48486,1.44495-3.5672,4.29333-3.5672,6.68524,0,2.23267,1.81,4.04266,4.04266,4.04266Z"/>
  <path class="cls-1" d="M19.40479,6.76489c1.42676,0,2.58789-1.16064,2.58789-2.58691,0-1.63086-1.52832-3.44043-2.26953-4.06152-.18359-.15527-.45215-.15527-.6377,0-.73926.62158-2.26758,2.43213-2.26758,4.06152,0,1.42627,1.16016,2.58691,2.58691,2.58691ZM19.40479,1.17554c.68164.69824,1.5957,1.97705,1.5957,3.00244,0,.87939-.71582,1.59473-1.5957,1.59473-.87891,0-1.59473-.71533-1.59473-1.59473,0-1.0249.91309-2.30371,1.59473-3.00244Z"/>
</svg>