<?xml version="1.0" encoding="UTF-8"?>
<svg id="Layer_1" data-name="Layer 1" xmlns="http://www.w3.org/2000/svg" viewBox="0 0 30.3623 33.19232">
  <defs>
    <style>
      .cls-1 {
        fill: #212121;
      }
    </style>
  </defs>
  <path class="cls-1" d="M10.91357,16.21332c.82275,0,1.58923-.20233,2.19879-.6026l-4.48151-3.98822c-.21631-.19238-.23584-.52393-.04297-.74023.19238-.21582.52344-.23486.74023-.04297l3.17633,2.82666c.37854.71649.89709,1.33881,1.55219,1.81738.01465.01074.03027.02051.0459.02979.01953.01318.04004.0249.06152.03564.74756.37109,1.5625.54834,2.39746.54834,2.2876-.00049,4.72168-1.33008,6.30957-3.6377,2.7124-3.94238,1.76807-10.81348,1.12646-12.10254-.03467-.08301-.08887-.15674-.15723-.21484-.01172-.01074-.02441-.02051-.03613-.02979-.11035-.08252-.24951-.12158-.38184-.11035-1.47949-.05469-8.01123,1.9502-10.43018,6.05371-.53418.90631-.88666,1.86609-1.07489,2.82245-2.9837-2.27509-6.09369-2.47815-7.03351-2.26874-.12256.01416-.24121.06787-.33545.16211l-.00342.00342-.00391.00391c-.10986.10986-.16504.25439-.16553.39844-.16846,1.19092.25879,5.36572,2.50635,7.45312,1.11182,1.03174,2.64111,1.58301,4.03174,1.58301ZM13.96875,6.63128c2.14746-3.64258,7.85889-5.30322,9.11865-5.50244.37598,1.36133,1.18408,7.29492-1.15088,10.68799-1.69482,2.46387-4.46191,3.64893-6.67822,2.95361l6.2168-9.82129c.16748-.26416.08887-.61426-.17529-.78174-.26465-.16895-.61328-.08984-.78223.17432l-6.25537,9.83008c-1.70605-1.69727-1.8667-4.87061-.29346-7.54053Z"/>
  <path class="cls-1" d="M30.35596,19.67865c-.00488-.01685-.01483-.03113-.02026-.04767.00244-.0224.01099-.04376.01099-.06659,0-2.22461-11.61377-2.39746-15.17334-2.39746-2.88104,0-11.03638.11371-14.04156,1.33643l-.00385-.07471-.1626.09961c-.07074.04315-.13.09198-.19354.13873-.4895.25409-.77179.55078-.77179.8974,0,.04083.01196.07953.01965.11896l-.00256.00897.00244.02344c.91309,7.68262,7.43506,13.47656,15.17139,13.47656,7.73145,0,14.25244-5.79004,15.16895-13.46875l.00244-.02344-.00635-.02148ZM15.19092,31.99701c-6.77765,0-12.45538-4.80328-13.77026-11.26282,3.20862,1.12109,10.95941,1.22864,13.75269,1.22864,2.80573,0,10.61151-.10889,13.79358-1.24402-1.31464,6.45801-7.01874,11.2782-13.776,11.2782ZM15.17334,18.3017c7.56201,0,12.54932.68652,13.8208,1.2627-1.271.57715-6.2583,1.26367-13.8208,1.26367s-12.5498-.68652-13.8208-1.26367c1.27148-.57617,6.25879-1.2627,13.8208-1.2627Z"/>
</svg>