<?xml version="1.0" encoding="UTF-8"?>
<svg id="Layer_1" data-name="Layer 1" xmlns="http://www.w3.org/2000/svg" viewBox="0 0 103 103">
  <defs>
    <style>
      .cls-1 {
        fill: #212121;
      }
    </style>
  </defs>
  <path class="cls-1" d="M24.44759,49.75425c-.14892.20937-.20715.46444-.1644.71804s.18209.47513.39146.62404c.16366.11648.35681.1784.55733.1784.31184,0,.60524-.15186.78586-.40583l2.61781-3.68528c.02654-.03746.03926-.0804.0599-.12044.01732-.03354.03612-.06423.04958-.09989.04055-.10795.0669-.2195.06745-.33322,0-.00134.00074-.00244.00074-.00378s-.00074-.00244-.00074-.00378c-.00055-.11371-.02691-.22526-.06745-.33322-.01345-.03566-.03225-.06635-.04958-.09989-.02064-.04004-.03336-.08298-.0599-.12044l-2.61781-3.68528c-.14892-.2101-.37081-.34943-.62515-.39219-.25434-.04239-.50793.01585-.7173.16477-.2101.14892-.34943.37045-.39219.62404s.01548.50867.1644.71804l1.53781,2.1648h-5.98831c-.53079,0-.96279.432-.96279.96316s.432.96316.96279.96316h5.98831l-1.53781,2.1648Z"/>
  <path class="cls-1" d="M83.00226,45.66314h-5.98831l1.53781-2.1648c.14892-.20937.20715-.46444.1644-.71804s-.18209-.47513-.39146-.62404-.46149-.20752-.71804-.16477c-.25434.04276-.47623.18209-.62515.39219l-2.61708,3.68492c-.02654.03718-.03907.0798-.05971.11947-.01769.03391-.03686.06497-.0505.10109-.08275.21886-.08247.45665.00018.67528.01327.03488.0317.06487.04875.09768.02083.04041.03363.08372.06054.1215l2.61781,3.68528c.18062.25397.47402.40583.78586.40583.20052,0,.39367-.06193.55659-.1784.2101-.14892.34943-.37045.39219-.62404s-.01548-.50867-.1644-.71804l-1.53781-2.1648h5.98831c.53079,0,.96279-.432.96279-.96316s-.432-.96316-.96279-.96316Z"/>
  <path class="cls-1" d="M51.50018,6.56408C26.72238,6.56408,6.56389,26.72219,6.56389,51.49963s20.15848,44.93629,44.93629,44.93629,44.93592-20.15812,44.93592-44.93629S76.27799,6.56408,51.50018,6.56408ZM74.38001,15.36058c-.0229.05059-.05967.09206-.07529.14647-1.66194,5.7783-3.75302,12.50552-6.06341,19.51675-4.66273-3.75781-10.61565-5.81581-16.93368-5.81581-6.6001,0-12.94697,2.33122-17.67079,6.43469-2.21143-7.38573-4.10282-14.06858-5.61971-19.86545-.00217-.00839-.00857-.01433-.01092-.02262,6.74924-4.45101,14.82191-7.05118,23.49397-7.05118,8.41132,0,16.25674,2.44899,22.87983,6.65714ZM35.2587,43.69208c-.00995-.28871-.01843-.57742-.03962-.86686-.00931-.12731-.02691-.25493-.03833-.38238-.0258-.28502-.04976-.57-.08662-.85534-.01825-.14187-.04543-.28369-.06635-.4256-.04018-.27129-.07778-.54249-.1279-.81369-.02967-.16048-.06911-.32073-.10229-.48116-.05207-.25166-.10044-.50346-.16126-.75476-.05188-.2148-.11546-.42878-.1738-.64316-.05216-.19204-.09823-.38454-.15555-.57613,4.41291-4.11802,10.601-6.47745,17.00067-6.47745,6.08857,0,11.84319,2.05238,16.21997,5.78263-.02571.0869-.04479.1749-.06948.26198-.06137.21734-.1186.435-.17315.65335-.04737.18988-.09261.3798-.13482.57037-.05114.23084-.09842.46186-.1421.69339-.03244.17269-.06257.34538-.09077.51844-.04174.25475-.07934.5095-.11196.76476-.01825.14435-.03465.28862-.05013.43311-.03078.28553-.05676.57083-.07639.85645-.00746.11012-.01309.22015-.01889.33027-.01696.31838-.0282.6363-.03133.95417-.00055.07478.00018.14933.00037.22411.00018.3493.00728.6979.02414,1.04586.00212.04253.00525.08492.00756.12744.02046.37616.04939.75098.08929,1.12465.00157.01447.0035.02884.00507.04326.1749,1.61042.52655,3.19338,1.05586,4.71732.00111.00318.0024.00631.0035.00949.13085.3763.27111.74914.42325,1.11769.01364.03308.0294.06533.04322.09837.14154.33796.2888.67348.44813,1.00398.03953.08234.08432.16205.12505.24388.1397.28037.28023.56028.43283.83456.08893.16016.18707.31525.28023.47305.11464.19375.22466.38984.34593.58009.22199.34916.45449.69228.69832,1.02835.25572.35358.50148.70196.74107,1.04771.08883.12832.17269.25429.25931.3815.15057.22084.3006.44154.44509.66021.08957.13555.17564.27.263.40473.13509.20854.26908.4168.3992.62418.08681.13827.17177.27627.25636.41408.06635.108.13058.21586.19573.32372-3.47868,7.94471-12.24837,13.27465-21.86345,13.27465-9.61941,0-18.39767-5.33178-21.88622-13.27982.06414-.10505.12818-.2102.19435-.31654.05787-.09289.115-.1855.17435-.2794.09823-.15583.20135-.31548.30474-.4754.06874-.1063.13574-.21121.20688-.31953.10984-.16739.22632-.34114.34271-.51461.06967-.10385.13592-.20448.20808-.31082.19084-.2812.38906-.56986.59925-.87128.23609-.33603.46158-.67777.67629-1.02481.15914-.25724.30622-.52028.45347-.78323.05142-.09183.10837-.18108.15841-.27359.1256-.23231.23922-.46988.35561-.7062.06266-.12726.13141-.25189.19149-.38026.1174-.25134.22282-.50752.33008-.76287.04921-.11708.10422-.23185.15122-.34971.09805-.2459.18402-.49605.27258-.74527.04654-.13113.09925-.26014.14329-.39215.08036-.24116.14873-.48605.22042-.72997.04202-.14325.09012-.28465.1292-.42873.06165-.22784.1115-.45882.16559-.68878.03843-.16338.08294-.3252.11749-.48955.04294-.20416.07464-.4109.11169-.61649.03465-.19296.07501-.38459.1045-.57866.02857-.18849.04644-.37906.07003-.56852.02663-.21328.05824-.4256.07851-.64003.0164-.17297.02258-.34745.03483-.52107.0164-.23309.03704-.4655.04608-.69965.00553-.14477.00203-.2906.0047-.43569.00488-.26461.01262-.52885.00783-.79443-.00212-.12247-.01226-.24558-.0164-.36823ZM8.704,51.49963c0-14.15156,6.90894-26.71481,17.52602-34.51019,1.60531,6.09696,3.59922,13.10468,5.93537,20.85159.06561.25581.14228.49982.22116.75195,1.75381,5.84013.82641,11.9405-2.54483,16.73749-.97458,1.39663-1.74423,2.58058-2.4254,3.72915l-.14763.26254c-3.88101,6.60623-5.84953,13.16057-5.84953,19.48127v3.10243c-7.84491-7.76202-12.71516-18.52479-12.71516-30.40622ZM23.44426,83.77559v-4.97217c0-5.4472,1.59503-11.1169,4.73617-16.88028,4.14235,8.04027,13.1755,13.32179,23.12721,13.32179,9.95097,0,18.97776-5.28179,23.1097-13.32248,3.14528,5.75314,4.74336,11.42418,4.74336,16.88097v5.07971c0,.0745.00723.14712.02018.21752-7.46853,6.35138-17.13152,10.1959-27.68069,10.1959-10.7272,0-20.53718-3.97648-28.05592-10.52097ZM81.18579,82.28275v-3.47933c0-6.25195-1.92696-12.71954-5.7172-19.23099l.00166-.00415-.29193-.49761c-.87064-1.48289-1.84449-2.96504-2.97683-4.53196-3.55388-4.89729-4.51611-11.33019-2.5874-17.19207l.02009-.05303.34759-.75596-.07077-.06418c1.69442-5.10675,4.0614-12.46106,6.21984-19.93907,10.97683,7.75557,18.16518,20.53271,18.16518,34.96523,0,12.07739-5.03667,22.99433-13.11021,30.78312Z"/>
  <path class="cls-1" d="M41.07376,63.3988c2.07818,3.20094,5.52977,3.54116,5.67647,3.55406.2912.02875.56028-.11869.70477-.36418.14375-.24659.13343-.55806-.02728-.79397-1.13382-1.66055-1.55034-3.22011-1.23777-4.6348.06635-.29599.16366-.58018.2912-.84889.80945.94952,1.61816,1.43091,2.40845,1.43091l.07298-.00147c.87432-.03244,1.45893-.65943,1.66682-1.02471.14892-.26171.12606-.58423-.05824-.82272-1.06084-1.36788-1.4722-2.67642-1.22228-3.88912.20789-1.00776.83968-1.81352,1.43091-2.3738.101,1.12166.47623,2.24552,1.11981,3.34765.7232,1.2385,1.53265,2.00262,1.54076,2.01036,1.51717,1.4217,2.10619,3.02917,1.75012,4.77708-.27277,1.33618-1.02103,2.28976-1.02766,2.29823-.21158.26244-.22042.63547-.0199.90824.14007.18872.36344.30152.59714.30152.09436,0,.18725-.01806.27645-.05345,3.93815-1.58167,6.34291-3.9481,7.14572-7.03367.37008-1.41986.39146-2.98715.06487-4.65766-.25507-1.30817-.72541-2.6849-1.39774-4.09259-1.13677-2.38006-2.44531-4.00855-2.49986-4.07674-.18946-.23443-.50204-.33027-.78512-.24623-.28898.08441-.49688.33174-.53005.62957-.23148,2.04611-1.07558,2.72028-1.44345,2.9197-1.33213-.71435-1.98603-1.923-1.94548-3.59424.03465-1.4276.57354-2.68232.58018-2.69743.01253-.03133.02433-.06193.03317-.09326.44159-1.5544.30078-2.96024-.41799-4.17921-1.39921-2.37269-4.48884-3.11063-4.61932-3.14049-.26761-.06377-.54701.02765-.72688.2348-.18135.20715-.23296.49577-.13417.75379.82125,2.14526.19757,4.34471-.47034,5.81249-.44675.98085-1.09696,1.87508-1.93295,2.65836-2.32441,2.17623-2.7365,4.6853-2.6731,6.40741.01622.43274.0634.86769.14007,1.30006-.35681-.44822-.60819-1.04499-.75047-1.7833-.23517-1.22487-.07372-2.38633-.07151-2.3996.05676-.3815-.18356-.73794-.5588-.82972-.37966-.09399-.75342.11574-.87727.47992-1.11686,3.23928-1.64397,6.11216-1.5673,8.5383.06561,2.06933.56838,3.84194,1.49505,5.2688Z"/>
</svg>