<?xml version="1.0" encoding="UTF-8"?>
<svg id="Layer_1" data-name="Layer 1" xmlns="http://www.w3.org/2000/svg" viewBox="0 0 103 103">
  <defs>
    <style>
      .cls-1 {
        fill: #212121;
      }
    </style>
  </defs>
  <path class="cls-1" d="M90.95373,32.29595c-.57409.26109-.82732.93781-.56622,1.5115,2.5307,5.56079,3.81414,11.50299,3.81414,17.66185,0,23.53681-19.14858,42.68539-42.68539,42.68539S8.83166,75.00612,8.83166,51.46931c0-17.82778,11.23875-33.93448,27.96594-40.07958.59178-.21745.89495-.87332.6779-1.4651-.21784-.59218-.8745-.89534-1.4651-.6779-6.48179,2.38124-12.17715,6.18614-16.7929,10.975-.32922-8.86833,4.11043-14.76516,12.70941-16.70251,9.52671-2.14654,19.13639.51471,26.95499,3.58805l-.01416.00826c-3.32735,1.87011-6.24576,4.93401-8.92195,9.36667-.54342.89888-1.04869,1.8241-1.53745,2.71866-1.50324,2.7513-2.92352,5.34963-5.34216,7.21149-4.73662,3.64349-11.8848,2.81342-16.49912.11049-.5442-.31889-1.24255-.13566-1.56144.40776-.31889.54381-.13644,1.24294.40776,1.56144,2.74894,1.61059,6.3012,2.62625,9.8574,2.62586,3.2668,0,6.53713-.8572,9.18737-2.89678,2.79966-2.1544,4.40278-5.08815,5.95321-7.92556.47736-.87371.97123-1.77692,1.48791-2.63373,2.46779-4.08585,5.11253-6.88473,8.08756-8.55666.56622-.31889,1.42028-.70031,2.30422-.68812.54342.00039,1.01763-.37473,1.1293-.90832.11089-.53319-.16987-1.07071-.6716-1.28383C54.15864,2.57787,42.83456-1.27638,31.42515,1.29207c-10.39954,2.343-15.59779,10.09382-14.31823,21.28047-6.65342,7.94296-10.55825,18.11901-10.55825,28.89677,0,24.79509,20.1725,44.96759,44.96759,44.96759s44.96759-20.1725,44.96759-44.96759c0-6.48719-1.35186-12.7475-4.01861-18.60713-.26109-.57409-.9382-.8285-1.5115-.56622Z"/>
  <path class="cls-1" d="M99.24576.87251c-.38613-.46989-1.07425-.55403-1.56105-.19031-42.67669,31.70223-52.50735,54.9893-54.54222,66.2163-4.42357-10.99412-14.08737-17.72186-19.35192-20.70884,4.26555-.20644,11.26942.06134,16.55968,3.23573.54027.32401,1.24176.14942,1.56577-.39164.3244-.54027.14903-1.24137-.39164-1.56577-8.84646-5.30835-21.40522-3.25932-21.93487-3.16889-.49898.08454-.88276.48758-.94253.9905-.06016.50252.21823.9846.68379,1.18396.20531.08793,20.5342,9.00507,23.48304,27.74107.0115.06778.02153.12135.02782.15212.02187.1069.06355.20599.11339.30051.01194.02271.02448.04365.03785.06532.06119.09948.1331.19154.22197.26832.00845.00732.01833.01209.02708.01917.05161.04207.10454.08292.16358.1158l13.60155,7.55673c.17223.09516.36333.14313.55443.14313.19425,0,.38928-.04954.56386-.14863.34603-.19661.56465-.55993.57723-.95786.01337-.43646,1.77417-43.99203,40.43229-79.28781.44826-.41012.4978-1.09981.11089-1.56891ZM56.55014,79.82688l-11.52894-6.40462c-.29923-3.55463-.30041-26.04078,40.91437-60.58395-24.46322,28.831-28.69181,59.30916-29.38543,66.98857Z"/>
</svg>