<?xml version="1.0" encoding="UTF-8"?>
<svg id="Layer_1" data-name="Layer 1" xmlns="http://www.w3.org/2000/svg" viewBox="0 0 103 103">
  <defs>
    <style>
      .cls-1 {
        fill: #212121;
      }
    </style>
  </defs>
  <g>
    <path class="cls-1" d="M86.31749,87.61695c-3.87395,0-7.0343-1.38229-7.26232-1.48468-.25637-.11499-.46155-.31978-.57615-.57654-.17997-.40248-4.3292-9.93277,2.14235-16.39604,6.23289-6.22462,19.96124-6.84763,20.54251-6.87126.3186-.01733.62892.1079.85497.33395.22566.22605.34656.53637.33317.85536-.02402.58206-.66515,14.30883-6.89804,20.53424-2.80238,2.79844-6.17736,3.60497-9.13648,3.60497ZM80.4032,84.20967c1.76271.65846,8.76748,2.8457,13.43535-1.81548,4.56863-4.56273,5.82529-14.24582,6.13601-17.73029-3.48446.30639-13.16913,1.55084-17.73777,6.11357-4.66669,4.66118-2.4893,11.66634-1.8336,13.4322Z"/>
    <path class="cls-1" d="M79.52302,86.23309c-.19533,0-.39106-.04962-.5667-.15044-.3308-.18903-8.09209-4.7297-7.26941-13.78663.21581-2.37706,1.04006-5.029,2.45031-7.88336,2.86342-5.77961,7.13866-10.42898,7.31942-10.62431.22487-.24338.54228-.37097.87663-.36625.3312.01103.64152.1654.85024.42296.07325.09058,1.80682,2.24946,3.42579,5.95446.25283.57812-.01142,1.25233-.58993,1.50516-.57694.2544-1.25193-.01181-1.50516-.58993-.83252-1.90527-1.70285-3.3742-2.30972-4.30123-1.39883,1.67056-4.08503,5.11092-6.01826,9.01282-1.28423,2.59996-2.03208,4.98096-2.22229,7.07605-.57733,6.35615,3.93735,10.09975,5.56616,11.23315,4.6982-3.03237,8.40044-7.22255,11.01143-12.46421.28118-.56552.96721-.79708,1.53272-.51353.56512.28118.79511.96799.51353,1.53272-2.9158,5.85444-7.11031,10.48805-12.46696,13.77403-.18312.11263-.39027.16855-.59781.16855Z"/>
  </g>
  <path class="cls-1" d="M45.28012,85.91568c-.11342,0-.22841-.01654-.34104-.05198-.50132-.15674-.83134-.63483-.79984-1.15939l1.61621-26.91639-8.86987.00709h-.00118c-.39933,0-.76991-.20793-.97705-.54976-.20754-.34183-.22132-.76715-.03662-1.12158l19.04602-36.53883c.24613-.471.78566-.70886,1.29998-.57812.51511.13311.87033.60411.85655,1.13655l-.70611,27.06997h11.03978c.41311,0,.79393.22211.99635.58206s.19494.8018-.0193,1.15466l-22.12682,36.41675c-.21148.34813-.58599.54898-.97705.54898ZM46.96919,55.50065c.31505,0,.61592.12996.83173.35916.2162.2292.32805.53716.30914.85221l-1.41261,23.52644,18.67741-30.73953h-10.18087c-.30836,0-.60372-.12445-.81874-.34498-.21502-.22132-.33199-.51905-.32411-.8278l.60765-23.30039-15.88842,30.48198,8.19802-.00709h.00079Z"/>
  <path class="cls-1" d="M35.54347,46.39331c-.17879,0-.36034-.04253-.52968-.13075-.55922-.293-.77503-.98453-.48203-1.54375l7.60179-14.50889c.29339-.55922.98493-.77188,1.54296-.48203.55922.293.77503.98453.48203,1.54375l-7.60179,14.50889c-.20439.38988-.60175.61277-1.01328.61277Z"/>
  <path class="cls-1" d="M95.08379,50.55513c-.60608,0-1.11174-.47573-1.14088-1.08771-.55449-11.54426-5.89185-22.52615-14.64318-30.12912-.47651-.41429-.52732-1.13655-.11302-1.61306.4139-.47651,1.13576-.52692,1.61267-.11342,9.21997,8.01096,14.84284,19.58121,15.42687,31.74533.03032.63089-.45643,1.16648-1.08693,1.19719-.01851.00079-.03702.00079-.05553.00079Z"/>
  <path class="cls-1" d="M12.78261,73.48061c-.40681,0-.80023-.21739-1.00698-.60017-3.51676-6.50895-5.37556-13.88509-5.37556-21.33053C6.40007,26.76957,26.55979,6.61024,51.33974,6.61024c6.55424,0,12.87259,1.37914,18.77901,4.10039.57339.26386.82425.94279.56,1.51618-.26346.57418-.94318.82543-1.51618.56-5.60476-2.58184-11.60136-3.89088-17.82283-3.89088-23.51895,0-42.65319,19.13463-42.65319,42.65397,0,7.06738,1.7635,14.06782,5.10068,20.24361.30009.55528.09294,1.24918-.46234,1.54926-.17288.09294-.35916.13783-.54228.13783Z"/>
  <path class="cls-1" d="M51.33974,96.48879c-11.25126,0-22.01695-4.17758-30.31461-11.76401-.46588-.42611-.49817-1.14915-.07207-1.61464.42571-.46549,1.14915-.49857,1.61503-.07246,7.8747,7.1997,18.09299,11.16541,28.77164,11.16541,9.97885,0,19.68478-3.51754,27.33028-9.90521.48518-.40563,1.20468-.34026,1.6103.14492.40445.48439.33986,1.20507-.14453,1.60991-8.05586,6.73028-18.28241,10.43607-28.79606,10.43607Z"/>
</svg>