<?xml version="1.0" encoding="UTF-8"?>
<svg id="Layer_1" data-name="Layer 1" xmlns="http://www.w3.org/2000/svg" viewBox="0 0 48.596 29.079">
  <defs>
    <style>
      .cls-1 {
        fill: #508165;
        stroke-width: 0px;
      }
    </style>
  </defs>
  <g id="Group_10" data-name="Group 10">
    <path id="Path_24" data-name="Path 24" class="cls-1" d="m37.958,7.803c-.504,0-1.008.036-1.507.106.606-3,1.048-3.83,5.149-7.91-5.984.477-16.679,7.779-14.56,19.536,1.042,5.782,5.043,9.543,10.917,9.543s10.638-4.763,10.638-10.638-4.763-10.638-10.638-10.638h0"/>
    <path id="Path_25" data-name="Path 25" class="cls-1" d="m11.191,7.803c-.504,0-1.008.036-1.507.106.606-3,1.049-3.83,5.148-7.91C8.85.477-1.846,7.779.274,19.536c1.042,5.782,5.043,9.543,10.917,9.543s10.638-4.763,10.638-10.638-4.763-10.638-10.638-10.638"/>
  </g>
</svg>