<?xml version="1.0" encoding="UTF-8"?>
<svg id="Layer_1" data-name="Layer 1" xmlns="http://www.w3.org/2000/svg" xmlns:xlink="http://www.w3.org/1999/xlink" viewBox="0 0 159.057 15.916">
  <defs>
    <style>
      .cls-1, .cls-2 {
        fill: #707070;
      }

      .cls-1, .cls-2, .cls-3 {
        stroke-width: 0px;
      }

      .cls-4 {
        isolation: isolate;
      }

      .cls-2 {
        fill-rule: evenodd;
      }

      .cls-3 {
        fill: none;
      }

      .cls-5 {
        clip-path: url(#clippath);
      }
    </style>
    <clipPath id="clippath">
      <rect class="cls-3" width="11.925" height="15.916"/>
    </clipPath>
  </defs>
  <g id="Group_16" data-name="Group 16">
    <g id="Verified_customer" data-name="Verified customer" class="cls-4">
      <g class="cls-4">
        <path class="cls-1" d="m23.222,11.716l3.656-10.556h1.846l-4.746,12.797h-1.494L17.746,1.16h1.837l3.639,10.556Z"/>
        <path class="cls-1" d="m33.743,14.133c-1.289,0-2.338-.423-3.146-1.27s-1.213-1.979-1.213-3.397v-.299c0-.943.18-1.785.54-2.526s.864-1.321,1.512-1.74,1.35-.629,2.105-.629c1.236,0,2.197.407,2.883,1.222s1.028,1.98,1.028,3.498v.677h-6.442c.023.938.297,1.695.821,2.271.524.578,1.191.866,2,.866.574,0,1.061-.117,1.459-.352s.747-.545,1.046-.932l.993.773c-.797,1.225-1.992,1.837-3.586,1.837Zm-.202-8.525c-.656,0-1.207.239-1.652.717s-.721,1.146-.826,2.008h4.764v-.123c-.047-.826-.27-1.466-.668-1.92s-.938-.682-1.617-.682Z"/>
        <path class="cls-1" d="m43.929,5.906c-.246-.041-.513-.062-.8-.062-1.066,0-1.79.454-2.171,1.362v6.75h-1.626V4.447h1.582l.026,1.099c.533-.85,1.289-1.274,2.268-1.274.316,0,.557.041.721.123v1.512Z"/>
        <path class="cls-1" d="m45.432,1.925c0-.264.08-.486.241-.668s.4-.272.717-.272.557.091.721.272.246.404.246.668-.082.483-.246.659-.404.264-.721.264-.556-.088-.717-.264-.241-.396-.241-.659Zm1.758,12.032h-1.626V4.447h1.626v9.51Z"/>
        <path class="cls-1" d="m50.591,13.957V5.704h-1.503v-1.257h1.503v-.976c0-1.02.272-1.808.817-2.364s1.315-.835,2.312-.835c.375,0,.747.05,1.116.148l-.088,1.311c-.275-.053-.568-.079-.879-.079-.527,0-.935.154-1.222.463s-.431.751-.431,1.327v1.005h2.03v1.257h-2.03v8.253h-1.626Z"/>
        <path class="cls-1" d="m56.049,1.925c0-.264.08-.486.241-.668s.4-.272.717-.272.557.091.721.272.246.404.246.668-.082.483-.246.659-.404.264-.721.264-.556-.088-.717-.264-.241-.396-.241-.659Zm1.758,12.032h-1.626V4.447h1.626v9.51Z"/>
        <path class="cls-1" d="m64.355,14.133c-1.289,0-2.338-.423-3.146-1.27s-1.213-1.979-1.213-3.397v-.299c0-.943.181-1.785.54-2.526.361-.741.864-1.321,1.512-1.74s1.35-.629,2.105-.629c1.236,0,2.197.407,2.883,1.222s1.028,1.98,1.028,3.498v.677h-6.442c.023.938.297,1.695.822,2.271.523.578,1.19.866,1.999.866.574,0,1.061-.117,1.459-.352s.747-.545,1.046-.932l.993.773c-.797,1.225-1.992,1.837-3.586,1.837Zm-.202-8.525c-.656,0-1.207.239-1.652.717s-.721,1.146-.826,2.008h4.764v-.123c-.047-.826-.27-1.466-.668-1.92s-.938-.682-1.617-.682Z"/>
        <path class="cls-1" d="m69.549,9.123c0-1.459.346-2.633,1.037-3.52.691-.889,1.597-1.332,2.716-1.332,1.113,0,1.995.381,2.646,1.143V.457h1.626v13.5h-1.494l-.079-1.02c-.65.797-1.556,1.195-2.716,1.195-1.102,0-2-.451-2.693-1.354-.695-.902-1.042-2.08-1.042-3.533v-.123Zm1.626.185c0,1.078.223,1.922.668,2.531s1.061.914,1.846.914c1.031,0,1.784-.463,2.259-1.389v-4.368c-.486-.896-1.233-1.345-2.241-1.345-.797,0-1.418.308-1.863.923s-.668,1.526-.668,2.733Z"/>
        <path class="cls-1" d="m88.367,12.806c.58,0,1.087-.176,1.521-.527s.674-.791.721-1.318h1.538c-.029.545-.217,1.063-.562,1.556s-.808.885-1.385,1.178-1.188.439-1.832.439c-1.295,0-2.324-.432-3.09-1.297-.764-.863-1.146-2.046-1.146-3.546v-.272c0-.926.17-1.749.51-2.47s.827-1.28,1.463-1.679,1.388-.598,2.255-.598c1.066,0,1.952.319,2.659.958.705.639,1.082,1.468,1.129,2.487h-1.538c-.047-.615-.28-1.121-.698-1.516-.42-.396-.937-.594-1.552-.594-.826,0-1.467.298-1.921.893s-.681,1.454-.681,2.579v.308c0,1.096.226,1.939.677,2.531s1.096.888,1.934.888Z"/>
        <path class="cls-1" d="m99.845,13.017c-.633.744-1.562,1.116-2.786,1.116-1.014,0-1.786-.295-2.315-.883-.531-.59-.799-1.461-.805-2.615v-6.188h1.626v6.144c0,1.441.586,2.162,1.758,2.162,1.242,0,2.068-.463,2.479-1.389v-6.917h1.626v9.51h-1.547l-.035-.94Z"/>
        <path class="cls-1" d="m109.434,11.435c0-.439-.166-.78-.496-1.024-.332-.242-.909-.452-1.732-.628s-1.477-.387-1.959-.633c-.484-.246-.842-.539-1.072-.879-.232-.34-.348-.744-.348-1.213,0-.779.33-1.438.988-1.978.66-.539,1.502-.809,2.527-.809,1.078,0,1.952.278,2.623.835s1.007,1.269,1.007,2.136h-1.635c0-.445-.188-.829-.567-1.151-.377-.322-.854-.483-1.428-.483-.592,0-1.055.129-1.389.387s-.501.595-.501,1.011c0,.393.155.688.466.888s.871.39,1.684.571c.811.182,1.469.398,1.973.65s.877.556,1.121.909c.242.355.364.787.364,1.297,0,.85-.34,1.531-1.02,2.043-.68.514-1.562.77-2.646.77-.762,0-1.436-.135-2.021-.404s-1.045-.646-1.375-1.129c-.332-.484-.497-1.007-.497-1.569h1.626c.029.545.247.978.654,1.296.407.32.945.479,1.613.479.615,0,1.108-.124,1.48-.374.372-.248.559-.581.559-.997Z"/>
        <path class="cls-1" d="m115.384,2.144v2.303h1.775v1.257h-1.775v5.905c0,.381.079.667.237.857s.428.286.809.286c.188,0,.445-.035.773-.105v1.311c-.428.116-.844.175-1.248.175-.727,0-1.274-.22-1.644-.659s-.554-1.063-.554-1.872v-5.897h-1.731v-1.257h1.731v-2.303h1.626Z"/>
        <path class="cls-1" d="m118.452,9.114c0-.932.183-1.77.55-2.514.365-.744.875-1.318,1.529-1.723.652-.404,1.398-.606,2.236-.606,1.295,0,2.342.448,3.143,1.345.799.896,1.199,2.089,1.199,3.577v.114c0,.926-.178,1.757-.531,2.491-.355.736-.861,1.309-1.521,1.719-.658.41-1.416.615-2.271.615-1.289,0-2.334-.448-3.133-1.345-.801-.896-1.2-2.083-1.2-3.56v-.114Zm1.635.193c0,1.055.244,1.901.733,2.54s1.145.958,1.965.958c.826,0,1.482-.323,1.969-.972.486-.646.729-1.554.729-2.72,0-1.043-.248-1.888-.743-2.536-.495-.646-1.152-.971-1.973-.971-.803,0-1.45.319-1.942.958s-.738,1.553-.738,2.742Z"/>
        <path class="cls-1" d="m130.677,4.447l.044,1.055c.697-.82,1.638-1.23,2.821-1.23,1.33,0,2.235.51,2.716,1.529.316-.457.728-.826,1.235-1.107.506-.281,1.105-.422,1.797-.422,2.086,0,3.146,1.104,3.182,3.313v6.372h-1.626v-6.275c0-.68-.155-1.188-.466-1.525-.311-.336-.832-.505-1.564-.505-.604,0-1.104.181-1.503.54-.398.361-.63.846-.694,1.455v6.311h-1.635v-6.231c0-1.383-.677-2.074-2.03-2.074-1.066,0-1.796.454-2.188,1.362v6.943h-1.626V4.447h1.538Z"/>
        <path class="cls-1" d="m148.871,14.133c-1.289,0-2.338-.423-3.146-1.27s-1.213-1.979-1.213-3.397v-.299c0-.943.181-1.785.54-2.526.361-.741.864-1.321,1.512-1.74s1.35-.629,2.105-.629c1.236,0,2.197.407,2.883,1.222s1.028,1.98,1.028,3.498v.677h-6.442c.023.938.297,1.695.822,2.271.523.578,1.19.866,1.999.866.574,0,1.061-.117,1.459-.352s.747-.545,1.046-.932l.993.773c-.797,1.225-1.992,1.837-3.586,1.837Zm-.202-8.525c-.656,0-1.207.239-1.652.717s-.721,1.146-.826,2.008h4.764v-.123c-.047-.826-.27-1.466-.668-1.92s-.938-.682-1.617-.682Z"/>
        <path class="cls-1" d="m159.057,5.906c-.246-.041-.513-.062-.8-.062-1.066,0-1.79.454-2.171,1.362v6.75h-1.626V4.447h1.582l.026,1.099c.533-.85,1.289-1.274,2.268-1.274.316,0,.557.041.721.123v1.512Z"/>
      </g>
    </g>
    <g class="cls-5">
      <g id="Group_12" data-name="Group 12">
        <path id="Path_26" data-name="Path 26" class="cls-2" d="m5.978,15.915H1.464c-.568.046-1.102-.276-1.327-.8-.081-.178-.125-.37-.13-.565-.009-2.715-.011-5.431-.007-8.15,0-.319.132-.447.455-.448h.649c.216,0,.235-.035.237-.232.005-.5-.007-1,.021-1.5.042-.641.232-1.264.554-1.82.399-.743,1.003-1.355,1.739-1.766.359-.186.734-.339,1.121-.458C5.283.016,5.818-.038,6.347.019c1.579.133,2.982,1.06,3.723,2.46.318.585.497,1.235.524,1.9.018.453.006.907.009,1.36,0,.187.026.213.216.215h.68c.3.006.421.121.423.426v8.023c.025.373-.09.741-.322,1.034-.269.314-.667.487-1.08.472-1.515.005-3.03,0-4.545,0m-.01-9.953h2.395c.2,0,.229-.034.228-.235v-1c.004-.464-.111-.921-.335-1.328-.357-.677-1.002-1.156-1.753-1.303-.594-.135-1.217-.045-1.748.252-.855.453-1.393,1.338-1.4,2.306-.016.344,0,.69,0,1.035,0,.253.017.272.27.272h2.343m0,7.261h.572c.322-.008.433-.16.391-.479-.071-.54-.128-1.083-.178-1.625.003-.084.039-.163.1-.22.198-.176.333-.411.385-.67.112-.474-.06-.97-.442-1.272-.361-.317-.873-.395-1.312-.2-.656.269-.97,1.019-.701,1.675.063.155.157.296.274.415.119.1.173.257.14.408-.066.526-.122,1.053-.185,1.579-.039.175.072.349.247.388.036.008.073.01.109.005h.6"/>
      </g>
    </g>
  </g>
</svg>