<?xml version="1.0" encoding="UTF-8"?>
<svg id="Layer_1" data-name="Layer 1" xmlns="http://www.w3.org/2000/svg" viewBox="0 0 100 100">
  <defs>
    <style>
      .cls-1, .cls-2 {
        stroke-width: 0px;
      }

      .cls-2 {
        fill: #b1d63c;
      }
    </style>
  </defs>
  <g>
    <g>
      <path class="cls-1" d="m45.8409,64.11462v6.15557h-17.58575v-27.97609h17.38677v6.15397h-10.9921v4.63594h9.99238v6.07534h-9.99238v4.95527h11.19108Z"/>
      <path class="cls-1" d="m49.2332,61.23742v-18.94332h6.39467v18.38328c0,2.11979.99972,3.91704,4.39684,3.91704s4.39523-1.79725,4.39523-3.91704v-18.38328h6.39467v18.94332c0,5.99511-4.63594,9.59281-10.78991,9.59281-6.15557,0-10.79151-3.59771-10.79151-9.59281Z"/>
    </g>
    <g>
      <path class="cls-1" d="m36.02503,38.71405h-1.78441v-4.54126l-2.0203,3.31368h-.20059l-2.01869-3.31368v4.54126h-1.78602v-7.81001h1.78602l2.11979,3.46933,2.11979-3.46933h1.78441v7.81001Z"/>
      <path class="cls-1" d="m41.93349,37.48646h-2.90127l-.38994,1.22758h-1.9529l2.65576-7.81001h2.27544l2.65576,7.81001h-1.9529l-.38994-1.22758Zm-.53597-1.67369l-.91467-2.86757-.91467,2.86757h1.82934Z"/>
      <path class="cls-1" d="m51.86007,34.80824c0,2.20965-1.63999,3.90581-3.79348,3.90581h-3.12432v-7.81001h3.12432c2.15349,0,3.79348,1.69615,3.79348,3.9042Zm-1.71862,0c0-1.33831-.84727-2.18558-2.07486-2.18558h-1.33831v4.37277h1.33831c1.22758,0,2.07486-.84727,2.07486-2.18719Z"/>
      <path class="cls-1" d="m57.77013,36.99543v1.71862h-4.91034v-7.81001h4.85417v1.71862h-3.06816v1.29338h2.78894v1.69615h-2.78894v1.38324h3.12432Z"/>
      <path class="cls-1" d="m63.3432,30.90404v7.81001h-1.78602v-7.81001h1.78602Z"/>
      <path class="cls-1" d="m70.81623,30.90404v7.81001h-1.33831l-3.012-4.23958v4.23958h-1.78602v-7.81001h1.33991l3.012,4.23958v-4.23958h1.78441Z"/>
    </g>
  </g>
  <g id="Group_8" data-name="Group 8">
    <path id="Path_11" data-name="Path 11" class="cls-2" d="m49.50957,3.61887l-1.49065,4.59613h-4.83274l3.91184,2.84619-1.49562,4.60122,3.91184-2.84619,3.91432,2.84619-1.49314-4.60122,3.91184-2.84619h-4.83274l-1.50493-4.59613Z"/>
    <path id="Path_12" data-name="Path 12" class="cls-2" d="m48.01675,88.10166h-4.83274l3.91184,2.84593-1.49562,4.59584,3.91184-2.83848,3.91432,2.83848-1.49562-4.59584,3.91184-2.84593h-4.83274l-1.49562-4.60391-1.49748,4.60391Z"/>
    <path id="Path_13" data-name="Path 13" class="cls-2" d="m8.07073,48.16347H3.23805l3.91447,2.83848-1.49559,4.60391,3.91193-2.83848,3.91193,2.83848-1.4905-4.60391,3.91193-2.83848h-4.83268l-1.49559-4.60112-1.50322,4.60112Z"/>
    <path id="Path_14" data-name="Path 14" class="cls-2" d="m29.53294,8.97553l-1.49562,4.60123h-4.83274l3.91199,2.83856-1.4905,4.60123,3.91199-2.8462,3.91199,2.8462-1.4981-4.60123,3.9196-2.83856h-4.83274l-1.50587-4.60123Z"/>
    <path id="Path_15" data-name="Path 15" class="cls-2" d="m14.9255,23.59317l-1.49814,4.60376h-4.83266l3.91191,2.8436-1.49558,4.59615,3.917-2.83863,3.91191,2.83863-1.49814-4.59615,3.91191-2.84624h-4.83266l-1.49554-4.60112Z"/>
    <path id="Path_16" data-name="Path 16" class="cls-2" d="m16.42109,68.13544l-1.49558-4.59615-1.49814,4.59615h-4.83266l3.91191,2.84624-1.49558,4.59615,3.917-2.83848,3.91191,2.83848-1.49814-4.59615,3.91191-2.84624h-4.83263Z"/>
    <path id="Path_17" data-name="Path 17" class="cls-2" d="m31.03866,82.75786l-1.49562-4.60391-1.49562,4.60391h-4.83274l3.91199,2.83848-1.4981,4.60391,3.91696-2.84624,3.91199,2.84624-1.4981-4.60391,3.9196-2.83848h-4.84035Z"/>
    <path id="Path_18" data-name="Path 18" class="cls-2" d="m87.95525,48.16347h-4.83243l3.91215,2.83848-1.49531,4.60391,3.91711-2.83848,3.91215,2.83848-1.49531-4.60391,3.9196-2.83848h-4.83243l-1.49841-4.60112-1.50711,4.60112Z"/>
    <path id="Path_19" data-name="Path 19" class="cls-2" d="m69.48123,8.97553l-1.49314,4.60123h-4.83274l3.91184,2.83856-1.49562,4.60123,3.91184-2.8462,3.91184,2.8462-1.49065-4.60123,3.91184-2.83856h-4.83274l-1.50245-4.60123Z"/>
    <path id="Path_20" data-name="Path 20" class="cls-2" d="m81.68247,31.04053l-1.49562,4.59615,3.91184-2.83863,3.91432,2.83863-1.49562-4.59615,3.91184-2.84624h-4.83274l-1.49562-4.60376-1.49314,4.60376h-4.83274l3.90749,2.84624Z"/>
    <path id="Path_21" data-name="Path 21" class="cls-2" d="m85.59958,68.13544l-1.49562-4.59615-1.49562,4.59615h-4.83274l3.91184,2.84624-1.49562,4.59615,3.91184-2.83848,3.91432,2.83848-1.49562-4.59615,3.91184-2.84624h-4.8346Z"/>
    <path id="Path_22" data-name="Path 22" class="cls-2" d="m70.97685,82.75786l-1.49562-4.60391-1.49562,4.60391h-4.83274l3.91184,2.83848-1.49562,4.60391,3.91184-2.84624,3.91184,2.84624-1.49065-4.60391,3.91184-2.83848h-4.83709Z"/>
  </g>
</svg>