<?xml version="1.0" encoding="UTF-8"?>
<svg id="Layer_1" data-name="Layer 1" xmlns="http://www.w3.org/2000/svg" viewBox="0 0 100 100">
  <defs>
    <style>
      .cls-1 {
        fill: #b1d63c;
        stroke: #b1d63c;
        stroke-miterlimit: 10;
      }
    </style>
  </defs>
  <g>
    <path d="M39.86914,46.07475l-2.26416-3.88818h-1.67188v3.88818h-2.20801v-11.2002h4.47998c1.03467,0,1.91455.36279,2.64014,1.08838.7251.7251,1.08789,1.59961,1.08789,2.62402,0,.69336-.19775,1.33594-.59229,1.92773-.39404.59229-.91699,1.03711-1.56738,1.33594l2.47949,4.22412h-2.38379ZM35.93311,36.93852v3.31201h2.27197c.41602,0,.77344-.16211,1.07178-.48779.29883-.3252.44824-.71729.44824-1.17578s-.14941-.84814-.44824-1.16797c-.29834-.32031-.65576-.48047-1.07178-.48047h-2.27197Z"/>
    <path d="M45.75684,43.96294h4.71973v2.11182h-6.92773v-11.2002h6.84814v2.1123h-4.64014v2.38379h4.23975v2.08008h-4.23975v2.51221Z"/>
    <path d="M59.56543,46.07475l-.71191-2.01611h-4.60059l-.67188,2.01611h-2.38379l3.91992-11.2002h2.73535l3.95117,11.2002h-2.23828ZM54.97168,41.99468h3.15234l-1.61621-4.57568-1.53613,4.57568Z"/>
    <path d="M65.10059,43.96294h4.27148v2.11182h-6.47949v-11.2002h2.20801v9.08838Z"/>
    <path d="M27.15723,62.07426l-2.26416-3.8877h-1.67188v3.8877h-2.20801v-11.2002h4.47998c1.03467,0,1.91455.36328,2.64014,1.08789.7251.72559,1.08789,1.60059,1.08789,2.62402,0,.69336-.19775,1.33594-.59229,1.92871-.39404.5918-.91699,1.03711-1.56738,1.33496l2.47949,4.22461h-2.38379ZM23.22119,52.93852v3.31152h2.27197c.41602,0,.77344-.16211,1.07178-.4873.29883-.32617.44824-.71777.44824-1.17676,0-.45801-.14941-.84766-.44824-1.16797-.29834-.31934-.65576-.47949-1.07178-.47949h-2.27197Z"/>
    <path d="M33.04492,59.96196h4.71973v2.1123h-6.92773v-11.2002h6.84814v2.1123h-4.64014v2.38379h4.23975v2.08008h-4.23975v2.51172Z"/>
    <path d="M43.14062,62.2979c-1.10938,0-2.04248-.24805-2.7998-.74316-.75732-.49609-1.29053-1.1709-1.6001-2.02441l1.88818-1.10449c.43701,1.1416,1.2959,1.71289,2.57617,1.71289.61816,0,1.07178-.1123,1.35986-.33691.28809-.22363.43213-.50586.43213-.84766,0-.39453-.17627-.70117-.52832-.91992s-.98145-.45605-1.8877-.71191c-.50146-.14941-.92578-.29883-1.27197-.44824-.34717-.14941-.69385-.34863-1.04004-.59961-.34717-.25098-.61084-.56836-.79199-.95215-.18164-.38379-.27197-.83203-.27197-1.34375,0-1.01367.35986-1.82129,1.07959-2.42383.72021-.60254,1.58691-.90381,2.6001-.90381.90674,0,1.7041.22119,2.39209.66357s1.22412,1.05859,1.60791,1.84766l-1.85596,1.07227c-.44775-.95996-1.1626-1.44043-2.14404-1.44043-.4585,0-.81885.10449-1.08008.3125s-.3916.47754-.3916.80762c0,.35254.14648.6377.43994.85645.29297.21875.85596.45605,1.68799.71191.34131.10645.59961.18945.77588.24805.17578.05859.41602.14941.71973.27148.3042.12305.53857.2373.7041.34473.16553.10645.35449.25.56836.43164.21289.18164.37598.36816.48779.55957.11182.19238.20801.4248.28809.69629.08008.27246.12012.56836.12012.8877,0,1.03516-.37646,1.85645-1.12842,2.46387-.75195.6084-1.73047.91211-2.93604.91211Z"/>
    <path d="M52.82031,62.2979c-1.24805,0-2.27197-.35156-3.07178-1.05566s-1.2002-1.64844-1.2002-2.83203v-7.53613h2.19238v7.36035c0,.58691.16797,1.05078.50342,1.3916.33594.3418.86133.5127,1.57617.5127s1.24023-.1709,1.57617-.5127c.33594-.34082.50391-.80469.50391-1.3916v-7.36035h2.20801v7.53613c0,1.18359-.40039,2.12793-1.2002,2.83203s-1.8291,1.05566-3.08789,1.05566Z"/>
    <path d="M61.30078,59.96196h4.27148v2.1123h-6.47949v-11.2002h2.20801v9.08789Z"/>
    <path d="M73.09277,50.87407v2.1123h-3.02441v9.08789h-2.20801v-9.08789h-3.00781v-2.1123h8.24023Z"/>
    <path d="M77.82812,62.2979c-1.10938,0-2.04297-.24805-2.7998-.74316-.75781-.49609-1.29102-1.1709-1.60059-2.02441l1.8877-1.10449c.4375,1.1416,1.29688,1.71289,2.57617,1.71289.61914,0,1.07227-.1123,1.36035-.33691.28809-.22363.43164-.50586.43164-.84766,0-.39453-.17578-.70117-.52734-.91992-.35254-.21875-.98145-.45605-1.88867-.71191-.50098-.14941-.9248-.29883-1.27148-.44824s-.69336-.34863-1.04004-.59961-.61133-.56836-.79199-.95215c-.18164-.38379-.27246-.83203-.27246-1.34375,0-1.01367.36035-1.82129,1.08008-2.42383s1.58691-.90381,2.60059-.90381c.90625,0,1.70312.22119,2.3916.66357s1.22363,1.05859,1.6084,1.84766l-1.85645,1.07227c-.44824-.95996-1.16309-1.44043-2.14355-1.44043-.45898,0-.81934.10449-1.08008.3125-.26172.20801-.39258.47754-.39258.80762,0,.35254.14648.6377.44043.85645.29297.21875.85547.45605,1.6875.71191.3418.10645.60059.18945.77637.24805s.41602.14941.71973.27148c.30469.12305.53906.2373.7041.34473.16504.10645.35449.25.56836.43164.21289.18164.37598.36816.4873.55957.1123.19238.20801.4248.28809.69629.08008.27246.12012.56836.12012.8877,0,1.03516-.37598,1.85645-1.12793,2.46387-.75195.6084-1.73047.91211-2.93555.91211Z"/>
  </g>
  <path class="cls-1" d="M50.92139,13.22614c-22.97461,0-41.67767,18.69098-41.67767,41.66553,0,13.57483,6.41937,25.99121,17.31543,33.8103.03619.03619.08441.07245.12067.0965.59125.42236,1.19458.83258,1.80994,1.21875l1.88239-1.67719,4.80243-4.28369,4.63361,3.95789,11.13733-11.28223,4.99554,4.29572,10.55536-10.59869-.00934,2.51306,2.41333.0094.02411-6.39148-6.39203-.02472-.0094,2.41327,2.25745.00867-8.96014,8.98145-5.00757-4.29572-11.12537,11.29431-4.54901-3.88544-6.73315,5.99707c-10.52191-7.33643-16.74829-19.18573-16.74829-32.15723,0-21.64728,17.61713-39.25226,39.2644-39.25226s39.25226,17.60498,39.25226,39.25226c0,14.70905-8.10864,28.06665-21.17664,34.86011l1.11005,2.1358c13.86438-7.20374,22.47992-21.38184,22.47992-36.99591,0-22.97455-18.69098-41.66553-41.66559-41.66553Z"/>
</svg>