<?xml version="1.0" encoding="UTF-8"?>
<svg id="Layer_1" data-name="Layer 1" xmlns="http://www.w3.org/2000/svg" viewBox="0 0 100 100">
  <defs>
    <style>
      .cls-1, .cls-2, .cls-3 {
        stroke-width: 0px;
      }

      .cls-2 {
        fill: #231f20;
      }

      .cls-3 {
        fill: #b1d63c;
      }
    </style>
  </defs>
  <g>
    <path class="cls-1" d="m22.37339,47.86102h3.05853l2.70871,8.99908,2.70871-8.99908h3.05853l-3.98443,12.23252h-3.56561l-3.98443-12.23252Z"/>
    <path class="cls-1" d="m42.63897,57.40248v2.69106h-7.68965v-12.23252h7.603v2.69106h-4.80603v2.02672h4.36956v2.65576h-4.36956v2.16793h4.89269Z"/>
    <path class="cls-1" d="m56.23226,54.3263c0,3.74052-2.60441,6.01115-6.03041,6.01115-3.84483,0-6.60489-2.83067-6.60489-6.34332,0-3.54796,2.81301-6.37863,6.41393-6.37863,2.34124,0,4.3166,1.15377,5.34681,2.79697l-2.37654,1.36238c-.50708-.80395-1.6079-1.43298-2.98793-1.43298-2.06202,0-3.60092,1.52124-3.60092,3.66992,0,2.07967,1.46829,3.60092,3.84483,3.60092,1.62555,0,2.69106-.71729,3.12914-1.88872h-3.26875v-2.44554h6.13471v1.04786Z"/>
    <path class="cls-1" d="m64.52688,58.17113h-4.54447l-.61139,1.92241h-3.05853l4.15935-12.23252h3.56561l4.15935,12.23252h-3.05853l-.61139-1.92241Zm-.83925-2.62206l-1.43298-4.48991-1.43298,4.48991h2.86597Z"/>
    <path class="cls-1" d="m78.85031,47.86102v12.23252h-2.09732l-4.71778-6.64019v6.64019h-2.79697v-12.23252h2.09732l4.71938,6.64019v-6.64019h2.79536Z"/>
  </g>
  <path class="cls-2" d="m63.11392,15.59247c-.22086-.10971-5.24388-2.56562-8.76702-.85829.54179-.87339.97059-1.9087,1.10689-3.09928.47016-4.108-4.23808-7.92597-4.43875-8.08649-.2357-.18856-.57048-.18856-.8062,0-.20066.16053-4.90903,3.97849-4.43875,8.08649.13627,1.19061.56507,2.22595,1.10686,3.09933-3.52314-1.70744-8.54626.74846-8.76712.85824-.27024.13436-.41129.43814-.33945.73133.06113.24957,1.54157,6.12765,5.46566,7.43105.77985.25903,1.55164.36314,2.28889.36314,1.83311,0,3.45101-.64395,4.44165-1.15149v4.77282c0,.35639.28889.64536.64536.64536s.64536-.28897.64536-.64536v-4.77277c.99057.50754,2.60837,1.15144,4.44165,1.15144.73699,0,1.50916-.10419,2.28889-.36314,3.9241-1.3034,5.4044-7.18148,5.46553-7.43105.07172-.29319-.0692-.59697-.33945-.73133Zm-12.50148-10.68602c1.07039.97018,3.87697,3.8036,3.55895,6.58168-.2585,2.2581-1.8512,3.90984-2.91408,4.77781v-5.75777c0-.35641-.28891-.64536-.64536-.64536s-.64536.28896-.64536.64536v5.76122c-1.06261-.86454-2.65452-2.51282-2.91408-4.78127-.31726-2.77147,2.49018-5.61011,3.55994-6.58168Zm-6.96952,17.62347c-2.64748-.87929-4.04006-4.621-4.47088-6.00041,1.3308-.56236,5.08285-1.91472,7.46842-.45667,1.89678,1.15928,2.72982,3.23174,3.08334,4.56614l-5.32799-2.82745c-.31461-.16688-.70535-.04746-.87262.26754-.16702.3148-.04727.70548.26759.87256l5.48838,2.91256c-1.2177.60491-3.42601,1.39969-5.63624.66573Zm13.93804,0c-2.20009.73078-4.41255-.06332-5.63354-.66716l5.48556-2.91112c.31487-.16708.43461-.55776.2676-.87256-.16726-.31493-.55788-.43468-.87263-.26754l-5.33125,2.82923c.35055-1.33262,1.1811-3.40329,3.08661-4.56793,2.38002-1.4544,6.13597-.10405,7.46816.4573-.43095,1.3799-1.82352,5.12061-4.47051,5.99978Z"/>
  <path class="cls-3" d="m65.3381,15.0654c-.22616,1.47551-.52945,2.61203-.82732,3.42851,14.16236,5.56736,24.21882,19.36816,24.21882,35.48251,0,21.01818-17.09953,38.11771-38.11771,38.11771S12.49419,74.99459,12.49419,53.97642c0-16.15307,10.10461-29.98175,24.32072-35.52273-.56535-1.19158-.90304-2.47693-1.07925-3.32902-15.6172,5.99992-26.73487,21.14705-26.73487,38.85175,0,22.9454,18.66571,41.61111,41.61111,41.61111s41.61111-18.66571,41.61111-41.61111c0-17.76167-11.18847-32.95092-26.88491-38.91102Z"/>
</svg>