<?xml version="1.0" encoding="UTF-8"?>
<svg id="Layer_1" data-name="Layer 1" xmlns="http://www.w3.org/2000/svg" viewBox="0 0 100 100">
  <defs>
    <style>
      .cls-1, .cls-2, .cls-3 {
        stroke-width: 0px;
      }

      .cls-2 {
        fill: #231f20;
      }

      .cls-3 {
        fill: #b1d63c;
      }
    </style>
  </defs>
  <g>
    <g>
      <path class="cls-1" d="m30.679,61.741v9.355h-1.603l-3.609-5.079v5.079h-2.137v-9.355h1.603l3.609,5.079v-5.079h2.137Z"/>
      <path class="cls-1" d="m37.76,69.626h-3.474l-.469,1.47h-2.338l3.18-9.355h2.726l3.18,9.355h-2.338l-.469-1.47Zm-.642-2.004l-1.094-3.436-1.096,3.436h2.19Z"/>
      <path class="cls-1" d="m46.981,63.8h-2.405v7.297h-2.139v-7.297h-2.405v-2.059h6.95v2.059Z"/>
      <path class="cls-1" d="m47.849,68.076v-6.335h2.139v6.148c0,.709.334,1.309,1.47,1.309s1.47-.6,1.47-1.309v-6.148h2.137v6.335c0,2.004-1.55,3.208-3.607,3.208s-3.609-1.204-3.609-3.208Z"/>
      <path class="cls-1" d="m59.754,68.023h-1.016v3.073h-2.137v-9.355h3.742c1.776,0,3.206,1.43,3.206,3.208,0,1.149-.695,2.192-1.723,2.714l1.991,3.434h-2.3l-1.764-3.073Zm-1.016-1.871h1.605c.587,0,1.069-.522,1.069-1.204s-.481-1.202-1.069-1.202h-1.605v2.405Z"/>
      <path class="cls-1" d="m70.297,69.626h-3.474l-.469,1.47h-2.338l3.18-9.355h2.726l3.18,9.355h-2.338l-.469-1.47Zm-.642-2.004l-1.094-3.436-1.096,3.436h2.19Z"/>
      <path class="cls-1" d="m79.383,69.037v2.059h-5.478v-9.355h2.137v7.297h3.341Z"/>
    </g>
    <g>
      <path class="cls-1" d="m29.706,40.126v17.236h-3.94v-13.075l-3.052.838-.961-3.373,4.506-1.626h3.447Z"/>
      <path class="cls-1" d="m32.17,48.745c0-5.32,2.561-8.962,7.017-8.962s7.017,3.643,7.017,8.962-2.561,8.962-7.017,8.962-7.017-3.644-7.017-8.962Zm10.095,0c0-3.325-1.009-5.122-3.078-5.122s-3.078,1.797-3.078,5.122,1.009,5.121,3.078,5.121,3.078-1.797,3.078-5.121Z"/>
      <path class="cls-1" d="m47.682,48.745c0-5.32,2.561-8.962,7.017-8.962s7.017,3.643,7.017,8.962-2.559,8.962-7.017,8.962-7.017-3.644-7.017-8.962Zm10.095,0c0-3.325-1.009-5.122-3.078-5.122s-3.078,1.797-3.078,5.122,1.009,5.121,3.078,5.121,3.078-1.797,3.078-5.121Z"/>
      <path class="cls-1" d="m62.949,43.967c0-2.314,1.821-4.185,4.285-4.185,2.438,0,4.259,1.797,4.259,4.185,0,2.314-1.821,4.185-4.259,4.185-2.463,0-4.285-1.871-4.285-4.185Zm13.173-1.626l1.624.936-11.128,12.337-1.626-.961,11.13-12.311Zm-7.584,1.626c0-.764-.542-1.354-1.33-1.354-.762,0-1.305.591-1.305,1.354s.542,1.354,1.305,1.354c.788,0,1.33-.64,1.33-1.354Zm3.2,9.505c0-2.316,1.823-4.187,4.285-4.187,2.438,0,4.26,1.871,4.26,4.187s-1.823,4.185-4.26,4.185c-2.462,0-4.285-1.871-4.285-4.185Zm5.591,0c0-.764-.542-1.354-1.33-1.354-.764,0-1.305.591-1.305,1.354s.541,1.354,1.305,1.354c.788,0,1.33-.64,1.33-1.354Z"/>
    </g>
  </g>
  <path class="cls-2" d="m45.527,2.415c-.349-.147-.753-.003-.929.333-.265.505-6.443,12.452-3.386,20.474,1.326,3.48,4.025,5.438,7.803,5.663,1.904.113,3.612-.243,4.526-.489l1.487,4.148c.136.379.553.576.932.44s.576-.553.44-.932l-1.487-4.148c.862-.391,2.408-1.2,3.806-2.497,2.775-2.574,3.615-5.801,2.429-9.331-2.734-8.137-15.096-13.439-15.621-13.661Zm3.534,25.013c-3.187-.203-5.37-1.792-6.488-4.725-2.21-5.798,1.034-14.26,2.577-17.718l2.917,8.137-3.41-.986c-.387-.112-.79.111-.902.497-.112.386.111.79.497.902l4.421,1.279,2.211,6.169-6.802-1.767c-.389-.101-.787.132-.888.522-.101.389.132.787.522.888l7.763,2.017,1.568,4.374c-.843.217-2.351.515-3.986.411Zm10.705-10.888c1,2.975.324,5.59-2.009,7.771-1.197,1.119-2.551,1.847-3.339,2.215l-1.568-4.374,4.714-6.489c.236-.325.164-.781-.161-1.017-.325-.236-.781-.165-1.017.161l-4.131,5.686-2.211-6.169,2.602-3.796c.227-.332.143-.785-.189-1.013-.332-.227-.785-.143-1.013.189l-2.007,2.928-2.917-8.137c3.388,1.691,11.269,6.166,13.245,12.047Z"/>
  <path class="cls-3" d="m63.658,15.927c.23.863.453,2.196.359,3.811,14.629,5.33,25.119,19.345,25.119,35.795,0,21.018-17.1,38.118-38.118,38.118S12.901,76.551,12.901,55.533c0-16.492,10.529-30.567,25.217-35.866-.104-1.497-.032-2.792.069-3.712-16.683,5.422-28.779,21.109-28.779,39.578,0,22.945,18.666,41.611,41.611,41.611s41.611-18.666,41.611-41.611c0-18.534-12.195-34.239-28.971-39.606Z"/>
</svg>