<?xml version="1.0" encoding="UTF-8"?>
<svg id="Layer_1" data-name="Layer 1" xmlns="http://www.w3.org/2000/svg" xmlns:xlink="http://www.w3.org/1999/xlink" viewBox="0 0 212.95 18.439">
  <defs>
    <style>
      .cls-1 {
        fill: #707070;
      }

      .cls-1, .cls-2, .cls-3 {
        stroke-width: 0px;
      }

      .cls-4 {
        isolation: isolate;
      }

      .cls-2 {
        fill: none;
      }

      .cls-5 {
        clip-path: url(#clippath);
      }

      .cls-3 {
        fill: #ffce00;
      }
    </style>
    <clipPath id="clippath">
      <rect class="cls-2" width="111" height="16.902"/>
    </clipPath>
  </defs>
  <g id="_5_5_Excellent_" data-name=" 5 5 Excellent " class="cls-4">
    <g class="cls-4">
      <path class="cls-1" d="m118.424,9.65l.542-5.317h5.464v1.252h-4.314l-.322,2.908c.522-.308,1.116-.461,1.78-.461.972,0,1.743.32,2.314.963.571.642.856,1.51.856,2.604s-.296,1.964-.89,2.597c-.593.632-1.422.948-2.486.948-.942,0-1.712-.261-2.308-.783s-.935-1.246-1.018-2.168h1.281c.083.61.301,1.07.652,1.38.352.311.815.466,1.392.466.63,0,1.124-.215,1.483-.645.358-.43.538-1.023.538-1.78,0-.713-.194-1.285-.582-1.718-.389-.432-.905-.648-1.55-.648-.591,0-1.055.13-1.392.389l-.358.293-1.084-.278Z"/>
      <path class="cls-1" d="m126.634,15.912h-1.164l4.453-11.58h1.157l-4.446,11.58Z"/>
      <path class="cls-1" d="m133.028,9.65l.542-5.317h5.464v1.252h-4.314l-.322,2.908c.522-.308,1.116-.461,1.78-.461.972,0,1.743.32,2.314.963.571.642.857,1.51.857,2.604s-.297,1.964-.891,2.597c-.593.632-1.422.948-2.486.948-.942,0-1.712-.261-2.308-.783s-.935-1.246-1.018-2.168h1.281c.083.61.301,1.07.652,1.38.352.311.815.466,1.392.466.63,0,1.124-.215,1.483-.645.358-.43.538-1.023.538-1.78,0-.713-.194-1.285-.582-1.718-.389-.432-.905-.648-1.55-.648-.591,0-1.055.13-1.392.389l-.358.293-1.084-.278Z"/>
      <path class="cls-1" d="m144.63,10.668c0-1.104.147-2.163.442-3.18.296-1.015.736-1.938,1.322-2.768s1.194-1.416,1.823-1.758l.279.893c-.714.548-1.298,1.383-1.755,2.506-.456,1.123-.706,2.38-.751,3.771l-.007.623c0,1.885.345,3.521,1.032,4.906.415.83.908,1.48,1.48,1.949l-.279.827c-.649-.361-1.27-.967-1.859-1.816-1.153-1.66-1.729-3.645-1.729-5.954Z"/>
      <path class="cls-1" d="m156.048,10.067h-4.621v3.779h5.368v1.15h-6.774V4.332h6.701v1.15h-5.295v3.435h4.621v1.149Z"/>
      <path class="cls-1" d="m160.991,9.965l1.758-2.894h1.582l-2.592,3.919,2.673,4.006h-1.567l-1.831-2.967-1.831,2.967h-1.574l2.673-4.006-2.593-3.919h1.567l1.735,2.894Z"/>
      <path class="cls-1" d="m168.8,14.037c.483,0,.905-.146,1.267-.439s.562-.66.602-1.1h1.281c-.024.455-.181.887-.469,1.297s-.673.737-1.153.981c-.481.244-.99.366-1.527.366-1.079,0-1.938-.36-2.574-1.08-.638-.721-.956-1.705-.956-2.955v-.228c0-.771.142-1.458.425-2.058.283-.602.689-1.067,1.22-1.399.529-.332,1.155-.498,1.879-.498.888,0,1.627.267,2.215.798.589.533.902,1.224.941,2.073h-1.281c-.04-.513-.233-.934-.583-1.264-.349-.329-.78-.494-1.292-.494-.689,0-1.223.248-1.601.743-.379.496-.567,1.213-.567,2.15v.256c0,.913.188,1.616.563,2.109s.913.74,1.611.74Z"/>
      <path class="cls-1" d="m176.762,15.143c-1.075,0-1.949-.353-2.623-1.059-.674-.705-1.01-1.648-1.01-2.83v-.25c0-.785.149-1.487.45-2.105.3-.617.72-1.101,1.26-1.45.539-.349,1.124-.523,1.754-.523,1.03,0,1.831.34,2.402,1.019s.856,1.65.856,2.914v.564h-5.368c.02.781.248,1.412.685,1.894.438.48.992.722,1.666.722.479,0,.884-.098,1.217-.293.331-.195.622-.455.871-.777l.828.645c-.665,1.021-1.661,1.531-2.988,1.531Zm-.169-7.104c-.547,0-1.006.199-1.377.597-.371.398-.601.956-.688,1.674h3.97v-.103c-.039-.688-.225-1.222-.557-1.601-.332-.378-.781-.567-1.348-.567Z"/>
      <path class="cls-1" d="m182.892,14.996h-1.355V3.746h1.355v11.25Z"/>
      <path class="cls-1" d="m186.532,14.996h-1.355V3.746h1.355v11.25Z"/>
      <path class="cls-1" d="m191.989,15.143c-1.075,0-1.949-.353-2.623-1.059-.674-.705-1.01-1.648-1.01-2.83v-.25c0-.785.149-1.487.45-2.105.3-.617.72-1.101,1.26-1.45.539-.349,1.124-.523,1.754-.523,1.03,0,1.831.34,2.402,1.019s.856,1.65.856,2.914v.564h-5.368c.02.781.248,1.412.685,1.894.438.48.992.722,1.666.722.479,0,.884-.098,1.217-.293.331-.195.622-.455.871-.777l.828.645c-.665,1.021-1.661,1.531-2.988,1.531Zm-.169-7.104c-.547,0-1.006.199-1.377.597-.371.398-.601.956-.688,1.674h3.97v-.103c-.039-.688-.225-1.222-.557-1.601-.332-.378-.781-.567-1.348-.567Z"/>
      <path class="cls-1" d="m197.928,7.072l.045.996c.604-.762,1.396-1.143,2.373-1.143,1.674,0,2.52.944,2.533,2.835v5.236h-1.354v-5.244c-.005-.571-.136-.993-.392-1.268-.257-.272-.656-.41-1.197-.41-.439,0-.826.117-1.158.352s-.591.543-.775.924v5.646h-1.355v-7.925h1.281Z"/>
      <path class="cls-1" d="m206.761,5.153v1.919h1.48v1.048h-1.48v4.92c0,.318.066.557.198.716.132.158.356.237.674.237.156,0,.371-.029.645-.088v1.093c-.356.097-.703.146-1.04.146-.605,0-1.062-.184-1.369-.549-.309-.367-.462-.887-.462-1.561v-4.914h-1.442v-1.048h1.442v-1.919h1.354Z"/>
      <path class="cls-1" d="m212.95,10.741c0,1.09-.143,2.133-.428,3.132-.286.998-.723,1.92-1.312,2.765-.588.845-1.204,1.445-1.849,1.802l-.286-.827c.752-.577,1.356-1.472,1.812-2.685.457-1.214.689-2.56.7-4.04v-.234c0-1.025-.108-1.979-.322-2.859-.216-.882-.515-1.671-.897-2.369-.384-.698-.814-1.243-1.293-1.634l.286-.827c.645.356,1.258.951,1.842,1.787.583.834,1.021,1.755,1.311,2.761.291,1.006.436,2.083.436,3.229Z"/>
    </g>
  </g>
  <g id="Group_15" data-name="Group 15">
    <g class="cls-5">
      <g id="Group_14" data-name="Group 14">
        <path id="Path_27" data-name="Path 27" class="cls-3" d="m8.491.317c.208-.422.55-.422.758,0l2.112,4.283c.261.46.708.785,1.227.891l4.721.686c.466.068.572.392.234.721l-3.416,3.33c-.357.39-.528.916-.468,1.442l.807,4.7c.08.464-.2.665-.613.446l-4.223-2.22c-.482-.219-1.034-.219-1.516,0l-4.223,2.22c-.417.219-.693.019-.613-.446l.807-4.7c.06-.526-.112-1.052-.469-1.442L.2,6.893c-.337-.329-.232-.653.234-.721l4.721-.686c.517-.105.963-.428,1.225-.886L8.491.317Z"/>
        <path id="Path_28" data-name="Path 28" class="cls-3" d="m31.806.317c.208-.422.55-.422.758,0l2.112,4.283c.261.46.708.785,1.227.891l4.721.686c.466.068.572.392.234.721l-3.416,3.33c-.357.39-.528.916-.468,1.442l.807,4.7c.08.464-.2.665-.613.446l-4.223-2.22c-.482-.219-1.034-.219-1.516,0l-4.223,2.22c-.417.219-.693.019-.613-.446l.807-4.7c.06-.526-.112-1.052-.469-1.442l-3.416-3.33c-.337-.329-.232-.653.234-.721l4.721-.686c.518-.106.964-.431,1.225-.891L31.806.317Z"/>
        <path id="Path_29" data-name="Path 29" class="cls-3" d="m55.121.317c.208-.422.55-.422.758,0l2.111,4.283c.261.46.708.785,1.227.891l4.721.686c.466.068.572.392.234.721l-3.416,3.33c-.357.39-.528.916-.468,1.442l.807,4.7c.08.464-.2.665-.613.446l-4.223-2.22c-.482-.219-1.034-.219-1.516,0l-4.223,2.22c-.417.219-.693.019-.613-.446l.807-4.7c.06-.526-.112-1.052-.469-1.442l-3.416-3.33c-.337-.329-.232-.653.234-.721l4.721-.686c.518-.106.965-.431,1.225-.891l2.112-4.283Z"/>
        <path id="Path_30" data-name="Path 30" class="cls-3" d="m78.436.317c.208-.422.55-.422.758,0l2.111,4.283c.261.46.708.785,1.227.891l4.722.681c.466.068.572.392.234.721l-3.416,3.33c-.357.39-.529.916-.469,1.442l.807,4.7c.08.464-.2.665-.613.446l-4.223-2.22c-.482-.219-1.034-.219-1.516,0l-4.223,2.22c-.417.219-.693.019-.613-.446l.806-4.7c.06-.526-.111-1.052-.468-1.442l-3.416-3.33c-.337-.329-.232-.653.234-.721l4.721-.686c.517-.105.963-.428,1.225-.886l2.112-4.283Z"/>
        <path id="Path_31" data-name="Path 31" class="cls-3" d="m101.751.317c.208-.422.55-.422.758,0l2.111,4.278c.261.46.708.785,1.227.891l4.721.686c.466.068.572.392.234.721l-3.416,3.33c-.358.39-.529.916-.469,1.442l.807,4.7c.08.464-.2.665-.613.446l-4.223-2.22c-.482-.219-1.034-.219-1.516,0l-4.223,2.22c-.417.219-.693.019-.613-.446l.807-4.7c.06-.526-.111-1.052-.469-1.442l-3.416-3.33c-.337-.329-.232-.653.234-.721l4.721-.686c.517-.105.964-.428,1.226-.886l2.112-4.283Z"/>
      </g>
    </g>
  </g>
</svg>