<?xml version="1.0" encoding="UTF-8"?>
<svg id="Layer_1" data-name="Layer 1" xmlns="http://www.w3.org/2000/svg" viewBox="0 0 100 100">
  <defs>
    <style>
      .cls-1, .cls-2 {
        stroke-width: 0px;
      }

      .cls-2 {
        fill: #b1d63c;
      }

      .cls-3 {
        fill: #231f20;
        stroke: #231f20;
        stroke-miterlimit: 10;
        stroke-width: .28346px;
      }
    </style>
  </defs>
  <g>
    <g>
      <path class="cls-1" d="m39.04721,64.19046c0,4.66322-3.24628,7.49549-7.51635,7.49549-4.7932,0-8.23685-3.53031-8.23685-7.9095,0-4.42251,3.50784-7.95282,7.99775-7.95282,2.91892,0,5.38051,1.4378,6.66586,3.48698l-2.96225,1.69936c-.63225-1.00293-2.00425-1.78762-3.72608-1.78762-2.57071,0-4.48831,1.89674-4.48831,4.57656,0,2.59317,1.82934,4.48831,4.7932,4.48831,2.02672,0,3.3554-.89381,3.90099-2.35407h-4.0759v-3.0489h7.64793v1.30621Z"/>
      <path class="cls-1" d="m56.25265,71.38106h-3.48538v-8.86749l-3.94432,6.47009h-.39154l-3.94432-6.47009v8.86749h-3.48538v-15.25254h3.48538l4.14009,6.77659,4.14009-6.77659h3.48538v15.25254Z"/>
      <path class="cls-1" d="m58.20716,63.75559c0-4.48831,3.55277-7.93196,7.93196-7.93196s7.93036,3.44366,7.93036,7.93196-3.55117,7.93036-7.93036,7.93036-7.93196-3.44205-7.93196-7.93036Zm12.37694,0c0-2.72476-1.96093-4.53324-4.44498-4.53324s-4.44498,1.80848-4.44498,4.53324c0,2.72315,1.96093,4.53163,4.44498,4.53163s4.44498-1.80848,4.44498-4.53163Z"/>
    </g>
    <g>
      <path class="cls-1" d="m38.79688,36.59308v15.25254h-2.61564l-5.88278-8.28018v8.28018h-3.48538v-15.25254h2.61403l5.88278,8.28018v-8.28018h3.48698Z"/>
      <path class="cls-1" d="m40.75139,44.22015c0-4.48831,3.55277-7.93196,7.93196-7.93196s7.93036,3.44366,7.93036,7.93196-3.55117,7.93036-7.93036,7.93036-7.93196-3.44205-7.93196-7.93036Zm12.37694,0c0-2.72476-1.96093-4.53324-4.44498-4.53324s-4.44498,1.80848-4.44498,4.53324c0,2.72315,1.96093,4.53163,4.44498,4.53163s4.44498-1.80848,4.44498-4.53163Z"/>
      <path class="cls-1" d="m70.55201,36.59308v15.25254h-2.61564l-5.88278-8.28018v8.28018h-3.48538v-15.25254h2.61403l5.88278,8.28018v-8.28018h3.48698Z"/>
    </g>
  </g>
  <g>
    <path class="cls-3" d="m48.60535,15.00217c-.41344,0-.80298-.18063-1.06919-.49504-.96968-1.14662-2.12582-2.94992-2.12582-5.02963,0-2.07921,1.15614-3.88276,2.12582-5.02959.26621-.31443.65575-.49482,1.06919-.49482.41342,0,.80299.18039,1.06894.49482.79416.93863,2.12608,2.84021,2.12608,5.02959,0,2.19007-1.33214,4.09123-2.12608,5.02963-.26596.31441-.65553.49504-1.06894.49504Zm0-10.23846c-.17438,0-.33853.0756-.45032.20775-.72229.85423-1.93405,2.57544-1.93405,4.50604,0,1.93107,1.21176,3.65206,1.93405,4.50604.22355.26434.67732.26434.90037,0,.72254-.85377,1.9343-2.57428,1.9343-4.50604,0-1.93129-1.21176-3.65202-1.93405-4.50604-.11176-.13215-.27594-.20775-.4503-.20775Z"/>
    <path class="cls-3" d="m44.61684,16.59794c-1.10859,0-2.39459-.18991-3.53122-.84587-1.89628-1.09516-2.87688-3.19921-3.29287-4.35603-.13934-.38745-.10063-.81527.10597-1.1733.20682-.35801.55789-.60518.96297-.67845,1.47844-.26668,3.6182-.3659,5.41894.67382,1.80122,1.03996,2.78483,2.94274,3.29287,4.35603.13934.38745.10063.81505-.10597,1.17305-.2066.35801-.55767.60544-.96322.67848-.48462.08741-1.1464.17228-1.88747.17228Zm-3.86257-6.41646c-.68426,0-1.29921.07954-1.74857.16045-.16997.03085-.31768.13496-.40487.28615-.08716.15119-.10364.3311-.04521.49389.37818,1.0525,1.26279,2.9622,2.93533,3.92797,1.67273.96599,3.76867.77655,4.86961.57807.17019-.03085.31767-.13496.40486-.28615.08716-.15094.10364-.33088.04522-.49364-.37844-1.05249-1.2628-2.96245-2.93534-3.92797-.98986-.57159-2.12837-.73877-3.12103-.73877Z"/>
    <path class="cls-3" d="m40.85072,23.48628c-.69654,0-1.35182-.07699-1.91225-.17808-.40559-.07304-.7564-.32044-.96322-.67848-.2066-.358-.24535-.7856-.10597-1.17327.50804-1.41308,1.49187-3.31581,3.29287-4.35578,1.80097-1.03996,3.94025-.94027,5.4187-.67384.4053.07326.75637.32044.96321.67848.2066.358.24532.78581.10595,1.17327-.41597,1.15707-1.39682,3.26113-3.29284,4.35579-1.11811.64555-2.367.85193-3.50644.85193Zm3.83779-6.42228c-.99267,0-2.13095.16721-3.12107.73877-1.67251.96552-2.55688,2.87526-2.93531,3.92775-.05867.16276-.04197.34293.04521.49389.0872.1512.2349.2553.40487.28611,1.10141.19873,3.19709.38724,4.86961-.57828,1.67229-.9653,2.5569-2.87526,2.9353-3.92776.05846-.16275.04198-.3427-.04521-.49389-.08716-.15119-.23486-.25529-.40508-.28611-.4489-.08094-1.06406-.16049-1.74832-.16049Z"/>
    <path class="cls-3" d="m48.75838,28.767c-.41342,0-.8032-.18039-1.06917-.49482-.79396-.93863-2.12585-2.84-2.12585-5.02959s1.3319-4.091,2.12585-5.02963c.26597-.31441.65575-.49482,1.06917-.49482.4132,0,.80298.18042,1.06894.49482.79397.93863,2.12585,2.84003,2.12585,5.02963s-1.33189,4.09097-2.12585,5.02959c-.26596.31443-.65574.49482-1.06894.49482Zm0-10.23824c-.17461,0-.33876.0756-.45052.20778-.72207.85376-1.93387,2.57475-1.93387,4.50604s1.2118,3.65227,1.93387,4.50603c.22305.26388.67683.26431.90081,0,.72207-.85376,1.93387-2.57474,1.93387-4.50603s-1.2118-3.65228-1.93387-4.50604c-.11176-.13219-.27591-.20778-.4503-.20778Z"/>
    <path class="cls-3" d="m56.58929,23.35387c-1.13966,0-2.38833-.20638-3.50644-.85193-1.89603-1.09466-2.87688-3.19871-3.29285-4.35575-.13936-.38748-.10065-.81505.10597-1.17308.20682-.35826.55789-.60543.96344-.6787,1.47726-.2671,3.61679-.36636,5.41844.67384,1.80099,1.03996,2.78483,2.94274,3.29287,4.35579.13936.3877.10062.81526-.10597,1.17326-.20682.35804-.55764.60543-.96319.67848-.56022.10109-1.21596.17808-1.91228.17808Zm-3.83777-6.42224c-.68429,0-1.29921.07951-1.74835.16046-.17019.03081-.31789.13495-.40508.28611-.08719.15119-.10364.33113-.04521.49392.37841,1.05246,1.26301,2.96241,2.93531,3.92771,1.67276.96623,3.76891.7768,4.8696.57832.16997-.03085.31767-.13495.40487-.28614.08741-.15097.10389-.33114.04521-.49389-.37841-1.0525-1.26279-2.96223-2.93531-3.92776-.98986-.57157-2.1284-.73874-3.12103-.73874Z"/>
    <path class="cls-3" d="m52.67036,16.46553c-.74107,0-1.40285-.08486-1.88748-.17227-.40555-.07304-.75662-.32047-.96322-.67848-.20659-.358-.24531-.7856-.10597-1.17305.50804-1.4133,1.49167-3.31607,3.29287-4.35604,1.80075-1.04018,3.94073-.9407,5.41848-.67381.40555.07304.75637.32044.96322.67848.2066.358.24531.78556.10594,1.17326-.50804,1.4133-1.49162,3.31607-3.29284,4.35604-1.1362.65596-2.42241.84586-3.531.84586Zm3.86235-6.41646c-.99266,0-2.13095.16721-3.12082.73877-1.67253.96552-2.5569,2.87547-2.93533,3.92797-.05843.16279-.04195.3427.04525.49364.08716.15119.23465.25529.40483.28614,1.10119.19848,3.19734.38724,4.86939-.57807,1.67251-.96552,2.5569-2.87547,2.93531-3.92797.05867-.16275.04222-.34292-.04522-.49389-.08715-.15119-.23486-.25529-.40483-.28614-.4494-.08091-1.06431-.16046-1.74858-.16046Z"/>
  </g>
  <path class="cls-2" d="m60.8636,14.21828c-1.199,1.62454-2.22419,2.44815-2.8415,2.83257,16.51332,4.1789,28.77733,19.1424,28.77733,36.93616,0,21.01818-17.09953,38.11771-38.11771,38.11771S10.56402,75.00518,10.56402,53.98701c0-17.77139,12.2255-32.7389,28.70733-36.93977-1.29649-1.15357-2.17646-2.16432-2.71643-2.86406C19.50754,19.38687,7.07062,35.25892,7.07062,53.98701c0,22.9454,18.66571,41.61111,41.61111,41.61111s41.61111-18.66571,41.61111-41.61111c0-18.70532-12.41365-34.54568-29.42924-39.76873Z"/>
</svg>